<svg xmlns="http://www.w3.org/2000/svg" width="237" height="238" viewBox="0 0 237 238" fill="none">
  <path fill="rgb(0,0,0)" d="M 126.5 17 L 128.5 17 Q 129.3 18.5 131 18 L 131 19.5 L 133 22.5 L 133 24.5 L 134 25.5 L 135 28.5 L 134 29.5 L 134 33.5 L 135 34.5 Q 134.5 37 136 37.5 L 136 40.5 L 137 41.5 L 138 44.5 L 144.5 52 Q 146.3 51.7 146.5 53 L 147.5 52 L 152.5 52 L 153.5 53 L 157.5 53 Q 158.3 54.8 161.5 54 Q 162 55.5 164.5 55 L 166 56.5 L 165 59.5 L 167 61.5 L 167 66.5 L 169.5 69 Q 173.3 69.8 174 67.5 L 169 62.5 L 169 61 L 170.5 61 L 174.5 65 L 175.5 65 L 179.5 68 Q 182 67.5 182.5 69 L 186.5 69 L 187.5 70 L 189.5 70 L 192.5 72 L 196.5 72 L 201.5 75 Q 204.7 74.3 205.5 76 L 209.5 76 L 214 79.5 L 214 82.5 L 212 85.5 L 212 88.5 L 204.5 97 L 204 95.5 L 207 92.5 L 207 90.5 Q 208.3 90.3 208 88.5 Q 206.5 88 207 85.5 L 204.5 83 L 203.5 83 L 201.5 81 L 198.5 81 L 194.5 87 Q 194.2 85.8 192.5 86 L 189.5 83 L 188 83 L 188 84.5 L 185.5 87 L 183.5 87 L 181.5 85 L 176.5 85 L 174.5 87 L 165.5 87 L 163 84.5 L 163 78 L 159.5 77 Q 159 78.5 156.5 78 L 151 83.5 Q 151.2 85.2 150 85.5 L 150 87.5 L 149 88.5 L 149 91.5 L 146.5 94 Q 144.3 93.3 145 95.5 L 143 97.5 L 143 98.5 L 137.5 104 Q 135.7 103.7 135.5 105 L 133.5 105 Q 132.5 102.5 130 103 L 130 101.5 L 128 98.5 L 128 96.5 L 127 95.5 L 127 90.5 L 126 89.5 L 126 80.5 L 125 79.5 L 125 75.5 Q 123.3 74.8 124 71.5 L 120.5 67 L 115.5 67 Q 114.5 67.4 115 65.5 L 119 60.5 Q 118.5 58 120 57.5 L 120 53.5 L 121 52.5 L 121 46.5 L 124 41.5 L 124 37.5 L 125 36.5 L 125 31.5 L 126 30.5 Q 125.5 28.5 126.5 28 L 127 28.5 L 127 38.5 Q 125.3 39.3 126 42.5 L 123 46.5 L 123 48.5 L 124 49.5 L 124 64.5 L 125.5 67 L 128 64.5 L 127 63.5 Q 126.2 60.3 128 59.5 L 128 53.5 L 129.5 52 L 131.5 52 L 132.5 53 L 135 53 L 135 50.5 L 136 49.5 L 136 47.5 L 134 45.5 L 134 43.5 Q 135.3 43.2 135 41.5 L 134 40.5 L 132 35.5 Q 133.3 35.3 133 33.5 L 132 32.5 L 132 27.5 L 130 24.5 L 130 22 L 127.5 22 L 126 20.5 Q 126.2 18.7 125 18.5 L 126.5 17 Z M 135 58 Q 132 59 133 64 Q 131 65 134 66 L 137 62 L 135 58 Z M 128 69 L 126 71 L 130 73 Q 130 72 132 72 L 132 69 L 128 69 Z "/>
  <path fill="rgb(0,0,0)" d="M 76 62 L 78 62 L 78 66.5 Q 76 67.5 78 68.5 L 78 72.5 L 79 73.5 L 79 77.5 L 80 78.5 Q 79.5 81 81 81.5 L 81 85.5 L 82 86.5 L 82 88.5 L 83 89.5 L 83 91.5 Q 84.5 92 84 94.5 L 87.5 98 L 92.5 98 Q 93 96.5 95.5 97 L 101.5 92 L 102 93.5 L 99 97.5 L 99 101.5 Q 97.5 102 98 104.5 L 96 106.5 L 96 107.5 L 93 112.5 L 93 123.5 Q 94.5 124 94 126.5 L 90.5 131 Q 88.3 131.8 89 129.5 L 85.5 126 L 84 127.5 L 84 134.5 L 86 136.5 L 82.5 141 Q 80.3 141.3 80 139.5 Q 81 135 78.5 134 L 74.5 134 L 72 131.5 Q 72.8 129.3 70.5 130 Q 69.5 128 68.5 130 L 66.5 130 L 64 127.5 L 64 126.5 L 60.5 123 L 59.5 123 L 56.5 121 L 54.5 121 Q 54 119.5 51.5 120 L 50.5 119 L 47.5 119 Q 47.3 120.2 45.5 120 Q 43.5 119.5 44 116.5 L 46 114.5 L 48 109.5 L 51 106.5 L 51 105 L 53.5 105 Q 53.8 106.2 55.5 106 Q 58 105 57 100.5 L 59.5 98 L 60.5 98 L 63.5 96 L 69 96 L 69 94 L 70.5 94 L 72 92.5 L 72 91.5 L 75 86.5 L 75 84.5 L 76 83.5 L 76 72.5 L 75 71.5 L 75 64.5 Q 76.5 63.8 76 62 Z M 71 96 Q 70 98 67 97 Q 65 98 65 100 L 69 100 L 72 98 Q 73 95 71 96 Z M 69 103 L 67 105 L 66 105 L 65 106 L 67 107 Q 69 108 70 106 Q 72 107 71 105 Q 71 103 69 103 Z "/>
  <path fill="rgb(0,0,0)" d="M 116.5 70 Q 119.5 69.5 120 71.5 Q 119.7 73.2 121 73.5 L 121 75.5 L 122 76.5 L 122 83.5 L 123 84.5 L 123 90.5 L 124 91.5 Q 123.3 94.8 125 95.5 L 125 99.5 L 129.5 106 L 130.5 106 L 133.5 108 L 136.5 108 L 138.5 106 L 139.5 106 L 144 101.5 L 144 100.5 L 153 91.5 L 154 88.5 L 157 85.5 L 157 83.5 L 159.5 80 Q 161.3 80.3 161 82.5 L 159 85.5 L 159 87.5 L 154 93.5 Q 154.2 95.2 153 95.5 L 153 97.5 L 151 100.5 L 151 111.5 L 152 112.5 L 152 115 L 155.5 116 L 158 118.5 L 158 119.5 L 160 121.5 L 160 127.5 Q 158.5 128.3 159 130 L 162.5 130 L 164 131.5 Q 163.3 134.8 165 135.5 L 165 145.5 L 165 146 Q 163.3 145.5 162.5 147 L 160.5 145 Q 158.7 145.2 158.5 144 L 156.5 144 L 155.5 143 L 146.5 143 L 141.5 146 L 138.5 146 L 135.5 144 L 132.5 146 L 127.5 146 Q 127.3 144.7 125.5 145 L 121.5 150 L 119 147.5 L 119 144.5 L 123 141.5 Q 122.7 139.7 124 139.5 L 124 135 L 121.5 135 Q 121.2 136.3 119.5 136 L 116 139.5 Q 116.2 141.2 115 141.5 L 115 143.5 L 114 144.5 L 114 147.5 L 115 148.5 Q 114.5 151 116 151.5 L 116 155.5 L 119.5 160 L 124.5 160 L 130.5 165 L 132.5 165 L 134 163.5 L 134 161 L 139 161 L 139 163 L 144.5 163 Q 145.5 162.6 145 164.5 L 148.5 169 Q 151 168.5 151.5 170 L 156.5 170 Q 157.3 171.8 160.5 171 Q 161.3 169.3 164.5 170 Q 165.5 172 166.5 170 Q 169.1 170.8 168 167.5 L 170 165.5 L 171 162.5 L 169 159.5 L 169 156.5 Q 170.3 152.8 176.5 154 L 179 156.5 L 177.5 158 Q 175.3 157.8 175 159.5 L 176.5 161 L 183.5 161 L 187 163.5 L 187 165.5 L 180.5 172 L 179.5 172 L 176.5 175 L 173.5 175 L 170.5 177 L 168.5 177 L 165.5 179 Q 162.3 178.3 161.5 180 L 158.5 178 L 155.5 178 L 154.5 177 L 152.5 177 Q 152 175.5 149.5 176 L 148.5 175 L 145.5 174 L 143.5 172 L 134.5 172 L 132 174.5 L 132 175.5 L 130 178.5 L 130 180.5 L 129 181.5 L 129 183.5 Q 127.5 184 128 186.5 L 126 189.5 L 126 191.5 L 124 194.5 L 124 196.5 Q 122.5 197 123 199.5 L 122 200.5 L 120 205.5 L 118.5 207 L 114.5 207 L 113.5 206 L 109.5 206 L 108.5 205 Q 105.3 205.8 104.5 204 L 99.5 204 L 98.5 203 L 96.5 203 Q 96 201.5 93.5 202 L 90.5 200 L 88.5 200 L 86.5 198 L 83.5 198 L 79.5 195 L 77.5 195 L 73.5 191 Q 71.7 191.2 71.5 190 L 68 190 L 68 187 L 70 187 L 70 186.5 L 70 182.5 L 72 180.5 L 73 177.5 L 75 175.5 Q 74.7 173.7 76 173.5 L 76 171.5 L 78 169.5 L 78 166.5 L 79.5 165 L 81 165 L 81 160.5 L 84 155.5 L 84 151.5 L 87 146.5 L 87 143.5 L 89 141.5 L 89 139.5 L 91 137.5 L 91 135.5 L 96 129.5 Q 95.7 127.7 97 127.5 L 97 125.5 L 96 124.5 L 96 120.5 Q 94.8 120.2 95 118.5 L 96 117.5 L 96 112.5 Q 97.5 112 97 109.5 L 99 107.5 L 100 104.5 L 102 102.5 L 102 99.5 Q 103.5 99 103 96.5 L 105 94.5 L 105 91.5 Q 106.5 91 106 88.5 L 108 86.5 Q 107.7 84.7 109 84.5 L 109 82.5 L 110 81.5 L 111 78.5 L 112.5 77 Q 115.1 77.8 114 74.5 Q 115.5 74 115 71.5 L 116.5 70 Z M 115 80 Q 113 81 114 84 L 116 86 Q 117 89 115 89 L 113 89 L 113 86 L 111 86 L 111 88 L 108 93 L 108 95 L 106 97 Q 106 99 107 100 L 107 101 L 104 105 L 104 110 L 111 110 Q 111 112 115 111 L 118 108 L 118 107 L 120 105 L 119 104 Q 119 102 120 102 L 120 100 L 121 99 Q 121 97 120 97 L 120 93 Q 122 92 120 91 L 121 90 L 121 87 Q 120 86 120 85 L 115 80 Z M 103 109 L 100 112 L 100 117 L 103 120 L 105 120 Q 105 119 107 119 Q 107 117 108 117 Q 109 113 106 114 Q 104 114 104 111 L 103 109 Z M 149 114 L 148 115 Q 149 115 149 117 L 154 120 Q 155 120 154 118 L 152 115 L 149 114 Z M 148 121 L 146 123 Q 147 123 147 125 L 149 126 L 151 126 L 150 123 Q 150 121 148 121 Z M 113 162 L 113 166 L 109 170 Q 109 171 108 172 L 108 175 L 107 176 L 107 183 L 108 184 L 108 185 L 105 188 Q 105 190 106 191 L 106 194 L 108 195 L 111 192 L 111 190 L 114 185 L 114 183 L 115 182 L 115 181 L 113 178 L 110 178 L 110 175 L 112 173 Q 114 174 115 172 L 117 172 L 120 170 L 123 170 L 124 169 L 126 169 L 126 167 L 124 167 L 118 162 L 113 162 Z "/>
  <path fill="rgb(0,0,0)" d="M 178.5 98 Q 182.8 97.3 183.5 100 L 196.5 100 Q 197 98.5 199.5 99 L 200 99.5 L 198.5 101 Q 196.7 100.7 196.5 102 L 185.5 102 L 182.5 104 L 174.5 104 L 173 102.5 L 176.5 99 Q 178.2 99.2 178.5 98 Z "/>
  <path fill="rgb(0,0,0)" d="M 165.5 101 L 169.5 101 L 172 102.5 L 171.5 103 L 165.5 103 Q 165.3 104.2 163.5 104 Q 163 102.5 160.5 103 L 159.5 104 Q 156.3 103.3 155.5 105 L 155 103 Q 156.8 103.5 157.5 102 L 164.5 102 L 165.5 101 Z "/>
  <path fill="rgb(0,0,0)" d="M 27 121 L 32.5 121 L 35 123.5 L 35 126.5 L 32.5 130 Q 30.6 129.5 31 130.5 L 31 138.5 L 32.5 140 L 35.5 141 L 39.5 144 L 41.5 144 L 42.5 145 Q 45 144.5 45.5 146 L 49.5 146 L 53.5 143 L 55.5 143 L 58.5 145 L 59.5 144 L 63.5 144 Q 65.3 144.3 65 146.5 Q 63.8 146.7 64 148.5 Q 64.8 150.8 68.5 150 L 69.5 149 L 75.5 149 L 78.5 151 L 81.5 149 Q 82.7 149.7 81 150.5 L 81 154 L 76.5 154 L 75.5 155 L 71.5 155 Q 70.3 152.8 69 155.5 Q 68.3 157.8 70.5 157 L 76 162.5 L 76 165.5 Q 74.5 166 75 168.5 L 72 172.5 L 72 174.5 Q 70.7 174.7 71 176.5 L 68 180.5 L 68 182.5 Q 66.8 182.7 67 184.5 L 65.5 186 Q 62.2 187.1 63 184.5 L 61 182.5 L 61 180.5 L 59 178.5 L 59 175.5 Q 60.3 175.3 60 173.5 Q 58.8 173.3 59 171.5 L 60 170.5 L 60 162.5 L 61 161.5 L 61 157.5 Q 59.5 156.8 60 155 L 58.5 155 L 53.5 151 L 49.5 151 L 48.5 152 L 44.5 152 L 43.5 151 L 36.5 151 L 35.5 150 L 31.5 150 Q 30.5 147.5 28 148 L 28 146.5 L 21 139.5 L 20 136.5 L 18 134.5 Q 18.2 132.7 17 132.5 L 17 129.5 L 16 128.5 L 15 125.5 L 16.5 124 L 22.5 124 L 26.5 127 L 28 127 L 28 124.5 L 27 123.5 L 27 121 Z "/>
  <path fill="rgb(0,0,255)" d="M 68.5 95 Q 69.5 95.5 68.5 96 Q 67.5 95.5 68.5 95 Z "/>
  <path fill="rgb(0,0,255)" d="M 70.5 96 Q 72.8 95.3 72 97.5 L 68.5 100 L 68 98 L 66 98 L 66 99.5 Q 65.5 100.5 65 99.5 Q 64.8 97.3 66.5 97 Q 68.2 96.7 68.5 98 L 70.5 96 Z "/>
  <path fill="rgb(0,0,255)" d="M 148.5 114 L 151.5 115 Q 152.2 113.3 153 114.5 L 152 115.5 L 154 117.5 Q 154.5 119.5 153.5 120 Q 152.5 119.5 153 117.5 L 151.5 116 L 150.5 118 L 148 114.5 L 148.5 114 Z "/>
  <path fill="rgb(0,0,255)" d="M 19.5 123 Q 21.5 122.5 22 123.5 Q 21.5 124.5 19.5 124 Q 18.5 123.5 19.5 123 Z "/>
  <path fill="rgb(0,0,255)" d="M 23.5 124 L 25 124.5 L 23.5 125 Q 22.5 124.5 23.5 124 Z "/>
  <path fill="rgb(0,0,255)" d="M 179.5 160 Q 184 159 185 161.5 Q 184.2 162.7 183.5 161 L 179.5 161 Q 178.5 160.5 179.5 160 Z "/>
  <path fill="rgb(0,0,255)" d="M 80.5 164 Q 81.5 164.5 80.5 165 Q 79.5 164.5 80.5 164 Z "/>
  <path fill="rgb(0,0,255)" d="M 69.5 186 Q 70.5 186.5 69.5 187 Q 68.5 186.5 69.5 186 Z "/>
  <path fill="rgb(0,255,255)" d="M 20.5 122 L 24 123.5 L 22.5 124 L 20 122.5 L 20.5 122 Z "/>
  <path fill="rgb(0,255,255)" d="M 25.5 124 Q 26.5 124.5 25.5 125 Q 24.5 124.5 25.5 124 Z "/>
  <path fill="rgb(0,255,255)" d="M 179.5 159 Q 182.3 158.3 183 159.5 Q 182.3 160.8 179.5 160 Q 178.5 159.5 179.5 159 Z "/>
  <path fill="rgb(0,255,255)" d="M 184.5 160 Q 185.5 160.5 184.5 161 Q 183.5 160.5 184.5 160 Z "/>
  <path fill="rgb(255,0,0)" d="M 129.5 17 Q 130.5 17.5 129.5 18 Q 128.5 17.5 129.5 17 Z "/>
  <path fill="rgb(255,0,0)" d="M 131.5 19 Q 132.5 19.5 131.5 20 Q 130.5 19.5 131.5 19 Z "/>
  <path fill="rgb(255,0,0)" d="M 133.5 24 Q 134.5 24.5 133.5 25 Q 132.5 24.5 133.5 24 Z "/>
  <path fill="rgb(255,0,0)" d="M 128.5 25 Q 129.5 25.5 128.5 26 Q 127.5 25.5 128.5 25 Z "/>
  <path fill="rgb(255,0,0)" d="M 134.5 26 Q 135.5 26.5 134.5 27 Q 133.5 26.5 134.5 26 Z "/>
  <path fill="rgb(255,0,0)" d="M 126.5 27 Q 128.5 27.5 128 30.5 Q 127.5 31.5 127 30.5 L 127 28.5 Q 125.2 27.7 126.5 27 Z "/>
  <path fill="rgb(255,0,0)" d="M 134.5 29 L 135 30.5 Q 134.5 31.5 134 30.5 L 134.5 29 Z "/>
  <path fill="rgb(255,0,0)" d="M 125.5 30 Q 126.5 30.5 125.5 31 Q 124.5 30.5 125.5 30 Z "/>
  <path fill="rgb(255,0,0)" d="M 132.5 33 L 133 34.5 Q 132.5 35.5 132 34.5 L 132.5 33 Z "/>
  <path fill="rgb(255,0,0)" d="M 134.5 33 Q 135.5 33.5 134.5 34 Q 133.5 33.5 134.5 33 Z "/>
  <path fill="rgb(255,0,0)" d="M 132.5 37 Q 133.5 37.5 132.5 38 Q 131.5 37.5 132.5 37 Z "/>
  <path fill="rgb(255,0,0)" d="M 133.5 39 Q 134.5 39.5 133.5 40 Q 132.5 39.5 133.5 39 Z "/>
  <path fill="rgb(255,0,0)" d="M 136.5 40 Q 137.5 40.5 136.5 41 Q 135.5 40.5 136.5 40 Z "/>
  <path fill="rgb(255,0,0)" d="M 123.5 41 Q 124.5 41.5 123.5 42 Q 122.5 41.5 123.5 41 Z "/>
  <path fill="rgb(255,0,0)" d="M 134.5 41 L 135 42.5 Q 134.5 43.5 134 42.5 L 134.5 41 Z "/>
  <path fill="rgb(255,0,0)" d="M 122.5 43 Q 123.5 43.5 122.5 44 Q 121.5 43.5 122.5 43 Z "/>
  <path fill="rgb(255,0,0)" d="M 125.5 43 Q 126.5 43.5 125.5 44 Q 124.5 43.5 125.5 43 Z "/>
  <path fill="rgb(255,0,0)" d="M 121.5 45 Q 122.5 45.5 121.5 46 Q 120.5 45.5 121.5 45 Z "/>
  <path fill="rgb(255,0,0)" d="M 123.5 46 Q 124.5 46.5 123.5 47 Q 122.5 46.5 123.5 46 Z "/>
  <path fill="rgb(255,0,0)" d="M 120.5 52 Q 121.5 52.5 120.5 53 Q 119.5 52.5 120.5 52 Z "/>
  <path fill="rgb(255,0,0)" d="M 146.5 52 Q 147.5 52.5 146.5 53 Q 145.5 52.5 146.5 52 Z "/>
  <path fill="rgb(255,0,0)" d="M 153.5 52 L 155 52.5 L 153.5 53 Q 152.5 52.5 153.5 52 Z "/>
  <path fill="rgb(255,0,0)" d="M 158.5 53 Q 159.5 53.5 158.5 54 Q 157.5 53.5 158.5 53 Z "/>
  <path fill="rgb(255,0,0)" d="M 127.5 54 L 128 54.5 L 128 59.5 Q 127.5 60.5 127 59.5 L 127 54.5 L 127.5 54 Z "/>
  <path fill="rgb(255,0,0)" d="M 119.5 57 Q 120.5 57.5 119.5 58 Q 118.5 57.5 119.5 57 Z "/>
  <path fill="rgb(255,0,0)" d="M 166.5 57 Q 167.5 57.5 166.5 58 Q 165.5 57.5 166.5 57 Z "/>
  <path fill="rgb(255,0,0)" d="M 133.5 59 Q 134.5 59.5 133.5 60 Q 132.5 59.5 133.5 59 Z "/>
  <path fill="rgb(255,0,0)" d="M 169.5 60 Q 170.5 60.5 169.5 61 Q 168.5 60.5 169.5 60 Z "/>
  <path fill="rgb(255,0,0)" d="M 77.5 61 Q 78.5 61.5 77.5 62 Q 76.5 61.5 77.5 61 Z "/>
  <path fill="rgb(255,0,0)" d="M 75.5 63 Q 76.5 63.5 75.5 64 Q 74.5 63.5 75.5 63 Z "/>
  <path fill="rgb(255,0,0)" d="M 167.5 63 L 168 64.5 Q 167.5 65.5 167 64.5 L 167.5 63 Z "/>
  <path fill="rgb(255,0,0)" d="M 127.5 64 Q 128.5 64.5 127.5 65 Q 126.5 64.5 127.5 64 Z "/>
  <path fill="rgb(255,0,0)" d="M 132.5 64 L 134 65.5 L 133.5 66 L 132 64.5 L 132.5 64 Z "/>
  <path fill="rgb(255,0,0)" d="M 125.5 66 Q 126.5 66.5 125.5 67 Q 124.5 66.5 125.5 66 Z "/>
  <path fill="rgb(255,0,0)" d="M 77.5 67 Q 78.5 67.5 77.5 68 Q 76.5 67.5 77.5 67 Z "/>
  <path fill="rgb(255,0,0)" d="M 173.5 67 Q 174.5 67.5 173.5 68 Q 172.5 67.5 173.5 67 Z "/>
  <path fill="rgb(255,0,0)" d="M 169.5 68 Q 170.5 68.5 169.5 69 Q 168.5 68.5 169.5 68 Z "/>
  <path fill="rgb(255,0,0)" d="M 127.5 69 L 128 69.5 L 126.5 71 L 126 70.5 L 127.5 69 Z "/>
  <path fill="rgb(255,0,0)" d="M 192.5 71 L 194 71.5 L 192.5 72 Q 191.5 71.5 192.5 71 Z "/>
  <path fill="rgb(255,0,0)" d="M 75.5 72 Q 76.5 72.5 75.5 73 Q 74.5 72.5 75.5 72 Z "/>
  <path fill="rgb(255,0,0)" d="M 78.5 72 Q 79.5 72.5 78.5 73 Q 77.5 72.5 78.5 72 Z "/>
  <path fill="rgb(255,0,0)" d="M 114.5 73 Q 115.5 73.5 114.5 74 Q 113.5 73.5 114.5 73 Z "/>
  <path fill="rgb(255,0,0)" d="M 199.5 73 Q 200.5 73.5 199.5 74 Q 198.5 73.5 199.5 73 Z "/>
  <path fill="rgb(255,0,0)" d="M 201.5 74 Q 202.5 74.5 201.5 75 Q 200.5 74.5 201.5 74 Z "/>
  <path fill="rgb(255,0,0)" d="M 121.5 75 Q 122.5 75.5 121.5 76 Q 120.5 75.5 121.5 75 Z "/>
  <path fill="rgb(255,0,0)" d="M 124.5 75 L 125 76.5 Q 124.5 77.5 124 76.5 L 124.5 75 Z "/>
  <path fill="rgb(255,0,0)" d="M 205.5 75 Q 206.5 75.5 205.5 76 Q 204.5 75.5 205.5 75 Z "/>
  <path fill="rgb(255,0,0)" d="M 113.5 76 Q 114.5 76.5 113.5 77 Q 112.5 76.5 113.5 76 Z "/>
  <path fill="rgb(255,0,0)" d="M 159.5 77 L 161 77.5 L 159.5 78 Q 158.5 77.5 159.5 77 Z "/>
  <path fill="rgb(255,0,0)" d="M 156.5 78 Q 157.5 78.5 156.5 79 Q 155.5 78.5 156.5 78 Z "/>
  <path fill="rgb(255,0,0)" d="M 114.5 80 L 120 84.5 Q 117.5 85.5 118 88 L 120 88 L 120 86.5 Q 120.5 85.5 121 86.5 Q 121.8 89.8 120 90.5 Q 122 91.5 120 92.5 Q 120.5 94.5 119.5 95 L 117.5 92 Q 115.7 92.2 115.5 91 L 113.5 91 Q 112.5 89 110 88.5 Q 111.5 87.8 111 86 L 113 86 L 113 89 L 114.5 89 Q 116.5 88.5 116 85.5 L 114 83.5 Q 113.3 80.8 114.5 80 Z M 118 88 Q 117 89 118 89 Q 119 89 118 88 Z "/>
  <path fill="rgb(255,0,0)" d="M 125.5 80 Q 126.5 80.5 125.5 81 Q 124.5 80.5 125.5 80 Z "/>
  <path fill="rgb(255,0,0)" d="M 160.5 80 Q 161.5 80.5 160.5 81 Q 159.5 80.5 160.5 80 Z "/>
  <path fill="rgb(255,0,0)" d="M 198.5 81 L 199 81.5 L 197.5 83 L 197 82.5 L 198.5 81 Z "/>
  <path fill="rgb(255,0,0)" d="M 201.5 81 Q 202.5 81.5 201.5 82 Q 200.5 81.5 201.5 81 Z "/>
  <path fill="rgb(255,0,0)" d="M 152.5 82 L 153 82.5 L 151.5 84 L 151 83.5 L 152.5 82 Z "/>
  <path fill="rgb(255,0,0)" d="M 157.5 82 Q 158.5 82.5 157.5 83 Q 156.5 82.5 157.5 82 Z "/>
  <path fill="rgb(255,0,0)" d="M 75.5 83 Q 76.5 83.5 75.5 84 Q 74.5 83.5 75.5 83 Z "/>
  <path fill="rgb(255,0,0)" d="M 122.5 83 Q 123.5 83.5 122.5 84 Q 121.5 83.5 122.5 83 Z "/>
  <path fill="rgb(255,0,0)" d="M 160.5 83 Q 161.5 83.5 160.5 84 Q 159.5 83.5 160.5 83 Z "/>
  <path fill="rgb(255,0,0)" d="M 188.5 83 L 190 83.5 L 188.5 84 Q 187.5 83.5 188.5 83 Z "/>
  <path fill="rgb(255,0,0)" d="M 204.5 83 L 207 85.5 L 206.5 86 L 204 83.5 L 204.5 83 Z "/>
  <path fill="rgb(255,0,0)" d="M 196.5 84 Q 197.5 84.5 196.5 85 Q 195.5 84.5 196.5 84 Z "/>
  <path fill="rgb(255,0,0)" d="M 81.5 85 Q 82.5 85.5 81.5 86 Q 80.5 85.5 81.5 85 Z "/>
  <path fill="rgb(255,0,0)" d="M 159.5 85 Q 160.5 85.5 159.5 86 Q 158.5 85.5 159.5 85 Z "/>
  <path fill="rgb(255,0,0)" d="M 163.5 85 L 165 86.5 L 164.5 87 L 163 85.5 L 163.5 85 Z "/>
  <path fill="rgb(255,0,0)" d="M 181.5 85 L 183 86.5 L 182.5 87 L 181 85.5 L 181.5 85 Z "/>
  <path fill="rgb(255,0,0)" d="M 212.5 85 Q 213.5 85.5 212.5 86 Q 211.5 85.5 212.5 85 Z "/>
  <path fill="rgb(255,0,0)" d="M 193.5 86 Q 194.5 86.5 193.5 87 Q 192.5 86.5 193.5 86 Z "/>
  <path fill="rgb(255,0,0)" d="M 184.5 87 Q 185.5 87.5 184.5 88 Q 183.5 87.5 184.5 87 Z "/>
  <path fill="rgb(255,0,0)" d="M 73.5 88 Q 74.5 88.5 73.5 89 Q 72.5 88.5 73.5 88 Z "/>
  <path fill="rgb(255,0,0)" d="M 82.5 88 Q 83.5 88.5 82.5 89 Q 81.5 88.5 82.5 88 Z "/>
  <path fill="rgb(255,0,0)" d="M 149.5 88 Q 150.5 88.5 149.5 89 Q 148.5 88.5 149.5 88 Z "/>
  <path fill="rgb(255,0,0)" d="M 207.5 88 L 208 89.5 Q 207.5 90.5 207 89.5 L 207.5 88 Z "/>
  <path fill="rgb(255,0,0)" d="M 153.5 89 Q 154.5 89.5 153.5 90 Q 152.5 89.5 153.5 89 Z "/>
  <path fill="rgb(255,0,0)" d="M 157.5 89 Q 158.5 89.5 157.5 90 Q 156.5 89.5 157.5 89 Z "/>
  <path fill="rgb(255,0,0)" d="M 109.5 90 Q 110.5 90.5 109.5 91 Q 108.5 90.5 109.5 90 Z "/>
  <path fill="rgb(255,0,0)" d="M 123.5 90 Q 124.5 90.5 123.5 91 Q 122.5 90.5 123.5 90 Z "/>
  <path fill="rgb(255,0,0)" d="M 126.5 90 Q 127.5 90.5 126.5 91 Q 125.5 90.5 126.5 90 Z "/>
  <path fill="rgb(255,0,0)" d="M 83.5 91 Q 84.5 91.5 83.5 92 Q 82.5 91.5 83.5 91 Z "/>
  <path fill="rgb(255,0,0)" d="M 101.5 91 L 102 91.5 L 100.5 93 L 100 92.5 L 101.5 91 Z "/>
  <path fill="rgb(255,0,0)" d="M 152.5 91 Q 153.5 91.5 152.5 92 Q 151.5 91.5 152.5 91 Z "/>
  <path fill="rgb(255,0,0)" d="M 71.5 92 L 72 92.5 L 70.5 94 L 70 93.5 L 71.5 92 Z "/>
  <path fill="rgb(255,0,0)" d="M 108.5 92 Q 109.5 92.5 108.5 93 Q 107.5 92.5 108.5 92 Z "/>
  <path fill="rgb(255,0,0)" d="M 124.5 92 Q 125.5 92.5 125 94.5 Q 124.5 95.5 124 94.5 Q 123.5 92.5 124.5 92 Z "/>
  <path fill="rgb(255,0,0)" d="M 206.5 92 Q 207.5 92.5 206.5 93 Q 205.5 92.5 206.5 92 Z "/>
  <path fill="rgb(255,0,0)" d="M 208.5 92 Q 209.5 92.5 208.5 93 Q 207.5 92.5 208.5 92 Z "/>
  <path fill="rgb(255,0,0)" d="M 104.5 93 L 105 94.5 L 103.5 96 L 103 95.5 L 104.5 93 Z "/>
  <path fill="rgb(255,0,0)" d="M 154.5 93 Q 155.5 93.5 154.5 94 Q 153.5 93.5 154.5 93 Z "/>
  <path fill="rgb(255,0,0)" d="M 84.5 94 Q 85.5 94.5 84.5 95 Q 83.5 94.5 84.5 94 Z "/>
  <path fill="rgb(255,0,0)" d="M 98.5 94 Q 99.5 94.5 98.5 95 Q 97.5 94.5 98.5 94 Z "/>
  <path fill="rgb(255,0,0)" d="M 145.5 94 Q 146.5 94.5 145.5 95 Q 144.5 94.5 145.5 94 Z "/>
  <path fill="rgb(255,0,0)" d="M 65.5 95 Q 67.5 94.5 68 95.5 Q 67.5 96.5 65.5 96 Q 64.5 95.5 65.5 95 Z "/>
  <path fill="rgb(255,0,0)" d="M 148.5 95 Q 149.5 95.5 148.5 96 Q 147.5 95.5 148.5 95 Z "/>
  <path fill="rgb(255,0,0)" d="M 153.5 95 Q 154.5 95.5 153.5 96 Q 152.5 95.5 153.5 95 Z "/>
  <path fill="rgb(255,0,0)" d="M 106.5 96 Q 107.5 96.5 107 98.5 Q 106.5 99.5 106 98.5 Q 105.5 96.5 106.5 96 Z "/>
  <path fill="rgb(255,0,0)" d="M 127.5 96 L 128 97.5 Q 127.5 98.5 127 97.5 L 127.5 96 Z "/>
  <path fill="rgb(255,0,0)" d="M 60.5 97 Q 61.5 97.5 60.5 98 Q 59.5 97.5 60.5 97 Z "/>
  <path fill="rgb(255,0,0)" d="M 87.5 97 Q 88.5 97.5 87.5 98 Q 86.5 97.5 87.5 97 Z "/>
  <path fill="rgb(255,0,0)" d="M 99.5 97 Q 100.5 97.5 99.5 98 Q 98.5 97.5 99.5 97 Z "/>
  <path fill="rgb(255,0,0)" d="M 102.5 97 L 103 98.5 Q 102.5 99.5 102 98.5 L 102.5 97 Z "/>
  <path fill="rgb(255,0,0)" d="M 143.5 97 Q 144.5 97.5 143.5 98 Q 142.5 97.5 143.5 97 Z "/>
  <path fill="rgb(255,0,0)" d="M 200.5 97 L 201 99 L 199 98.5 L 200.5 97 Z "/>
  <path fill="rgb(255,0,0)" d="M 152.5 98 Q 153.5 98.5 152.5 99 Q 151.5 98.5 152.5 98 Z "/>
  <path fill="rgb(255,0,0)" d="M 177.5 98 Q 178.5 98.5 177.5 99 Q 176.5 98.5 177.5 98 Z "/>
  <path fill="rgb(255,0,0)" d="M 182.5 98 L 184 99.5 L 183.5 100 L 182 98.5 L 182.5 98 Z "/>
  <path fill="rgb(255,0,0)" d="M 67.5 99 Q 68.5 99.5 67.5 100 Q 66.5 99.5 67.5 99 Z "/>
  <path fill="rgb(255,0,0)" d="M 125.5 99 Q 126.5 99.5 125.5 100 Q 124.5 99.5 125.5 99 Z "/>
  <path fill="rgb(255,0,0)" d="M 128.5 99 Q 129.5 99.5 128.5 100 Q 127.5 99.5 128.5 99 Z "/>
  <path fill="rgb(255,0,0)" d="M 186.5 99 Q 189.3 98.3 190 99.5 Q 189.3 100.8 186.5 100 Q 185.5 99.5 186.5 99 Z "/>
  <path fill="rgb(255,0,0)" d="M 196.5 99 Q 197.5 99.5 196.5 100 Q 195.5 99.5 196.5 99 Z "/>
  <path fill="rgb(255,0,0)" d="M 119.5 100 L 120 101.5 Q 119.5 102.5 119 101.5 L 119.5 100 Z "/>
  <path fill="rgb(255,0,0)" d="M 151.5 100 L 152 101.5 Q 151.5 102.5 151 101.5 L 151.5 100 Z "/>
  <path fill="rgb(255,0,0)" d="M 126.5 101 L 128 102.5 L 127.5 103 L 126 101.5 L 126.5 101 Z "/>
  <path fill="rgb(255,0,0)" d="M 143.5 101 L 144 101.5 L 142.5 103 L 142 102.5 L 143.5 101 Z "/>
  <path fill="rgb(255,0,0)" d="M 159.5 101 L 164.5 101 L 165 101.5 L 164.5 102 L 159.5 102 Q 158.5 101.5 159.5 101 Z "/>
  <path fill="rgb(255,0,0)" d="M 98.5 102 Q 99.5 102.5 98.5 103 Q 97.5 102.5 98.5 102 Z "/>
  <path fill="rgb(255,0,0)" d="M 101.5 102 Q 102.5 102.5 101.5 103 Q 100.5 102.5 101.5 102 Z "/>
  <path fill="rgb(255,0,0)" d="M 156.5 102 Q 157.5 102.5 156.5 103 Q 155.5 102.5 156.5 102 Z "/>
  <path fill="rgb(255,0,0)" d="M 185.5 102 Q 186.5 102.5 185.5 103 Q 184.5 102.5 185.5 102 Z "/>
  <path fill="rgb(255,0,0)" d="M 131.5 103 L 133 104.5 L 132.5 105 L 131 103.5 L 131.5 103 Z "/>
  <path fill="rgb(255,0,0)" d="M 162.5 103 Q 163.5 103.5 162.5 104 Q 161.5 103.5 162.5 103 Z "/>
  <path fill="rgb(255,0,0)" d="M 165.5 103 Q 166.5 103.5 165.5 104 Q 164.5 103.5 165.5 103 Z "/>
  <path fill="rgb(255,0,0)" d="M 169.5 103 L 173.5 103 L 174 103.5 L 173.5 104 L 169.5 104 Q 168.5 103.5 169.5 103 Z "/>
  <path fill="rgb(255,0,0)" d="M 183.5 103 Q 184.5 103.5 183.5 104 Q 182.5 103.5 183.5 103 Z "/>
  <path fill="rgb(255,0,0)" d="M 104 104 L 106 104 L 106 105.5 L 104.5 107 L 104 106.5 L 104 104 Z "/>
  <path fill="rgb(255,0,0)" d="M 118.5 104 L 120 104.5 Q 118 105.5 117.5 108 Q 116.5 107.5 117 105.5 L 118.5 104 Z "/>
  <path fill="rgb(255,0,0)" d="M 128.5 104 L 130 105.5 L 129.5 106 L 128 104.5 L 128.5 104 Z "/>
  <path fill="rgb(255,0,0)" d="M 136.5 104 Q 137.5 104.5 136.5 105 Q 135.5 104.5 136.5 104 Z "/>
  <path fill="rgb(255,0,0)" d="M 140.5 104 L 141 104.5 L 139.5 106 L 139 105.5 L 140.5 104 Z "/>
  <path fill="rgb(255,0,0)" d="M 65.5 105 Q 66.5 105.5 65.5 106 Q 64.5 105.5 65.5 105 Z "/>
  <path fill="rgb(255,0,0)" d="M 136.5 107 Q 137.5 107.5 136.5 108 Q 135.5 107.5 136.5 107 Z "/>
  <path fill="rgb(255,0,0)" d="M 102.5 109 L 104 110.5 L 103.5 111 Q 101 110.5 100.5 112 L 100 111.5 L 102.5 109 Z "/>
  <path fill="rgb(255,0,0)" d="M 105.5 109 Q 108.3 108.3 109 109.5 Q 108.3 110.8 105.5 110 Q 104.5 109.5 105.5 109 Z "/>
  <path fill="rgb(255,0,0)" d="M 94.5 110 Q 95.5 110.5 94.5 111 Q 93.5 110.5 94.5 110 Z "/>
  <path fill="rgb(255,0,0)" d="M 111.5 110 Q 112.5 110.5 111.5 111 Q 110.5 110.5 111.5 110 Z "/>
  <path fill="rgb(255,0,0)" d="M 96.5 111 Q 97.5 111.5 96.5 112 Q 95.5 111.5 96.5 111 Z "/>
  <path fill="rgb(255,0,0)" d="M 151.5 111 Q 152.5 111.5 151.5 112 Q 150.5 111.5 151.5 111 Z "/>
  <path fill="rgb(255,0,0)" d="M 46.5 112 Q 47.5 112.5 46.5 113 Q 45.5 112.5 46.5 112 Z "/>
  <path fill="rgb(255,0,0)" d="M 152.5 113 Q 153.5 113.5 152.5 114 Q 151.5 113.5 152.5 113 Z "/>
  <path fill="rgb(255,0,0)" d="M 106.5 114 L 108 114.5 L 106.5 115 Q 105.5 114.5 106.5 114 Z "/>
  <path fill="rgb(255,0,0)" d="M 100.5 115 L 101 116.5 Q 100.5 117.5 100 116.5 L 100.5 115 Z "/>
  <path fill="rgb(255,0,0)" d="M 154.5 115 Q 155.5 115.5 154.5 116 Q 153.5 115.5 154.5 115 Z "/>
  <path fill="rgb(255,0,0)" d="M 107.5 116 Q 108.7 116.7 107 117.5 L 106.5 119 L 106 117.5 L 107.5 116 Z "/>
  <path fill="rgb(255,0,0)" d="M 95.5 117 Q 96.5 117.5 95.5 118 Q 94.5 117.5 95.5 117 Z "/>
  <path fill="rgb(255,0,0)" d="M 101.5 118 Q 102.5 118.5 101.5 119 Q 100.5 118.5 101.5 118 Z "/>
  <path fill="rgb(255,0,0)" d="M 47.5 119 Q 50.3 118.3 51 119.5 Q 50.3 120.8 47.5 120 Q 46.5 119.5 47.5 119 Z "/>
  <path fill="rgb(255,0,0)" d="M 158.5 119 Q 159.5 119.5 158.5 120 Q 157.5 119.5 158.5 119 Z "/>
  <path fill="rgb(255,0,0)" d="M 95.5 120 Q 96.5 120.5 95.5 121 Q 94.5 120.5 95.5 120 Z "/>
  <path fill="rgb(255,0,0)" d="M 33.5 121 L 35 122.5 L 34.5 123 L 33 121.5 L 33.5 121 Z "/>
  <path fill="rgb(255,0,0)" d="M 58.5 122 Q 59.5 122.5 58.5 123 Q 57.5 122.5 58.5 122 Z "/>
  <path fill="rgb(255,0,0)" d="M 146.5 122 Q 147.5 122.5 146.5 123 Q 145.5 122.5 146.5 122 Z "/>
  <path fill="rgb(255,0,0)" d="M 18.5 123 Q 19.5 123.5 18.5 124 Q 17.5 123.5 18.5 123 Z "/>
  <path fill="rgb(255,0,0)" d="M 60.5 123 Q 61.5 123.5 60.5 124 Q 59.5 123.5 60.5 123 Z "/>
  <path fill="rgb(255,0,0)" d="M 160.5 123 Q 161.5 123.5 160.5 124 Q 159.5 123.5 160.5 123 Z "/>
  <path fill="rgb(255,0,0)" d="M 15.5 124 Q 16.5 124.5 15.5 125 Q 14.5 124.5 15.5 124 Z "/>
  <path fill="rgb(255,0,0)" d="M 25.5 125 L 27 126.5 L 26.5 127 L 25 125.5 L 25.5 125 Z "/>
  <path fill="rgb(255,0,0)" d="M 63.5 126 Q 64.5 126.5 63.5 127 Q 62.5 126.5 63.5 126 Z "/>
  <path fill="rgb(255,0,0)" d="M 94.5 126 L 95 126.5 L 93.5 128 L 93 127.5 L 94.5 126 Z "/>
  <path fill="rgb(255,0,0)" d="M 15.5 127 Q 16.5 127.5 15.5 128 Q 14.5 127.5 15.5 127 Z "/>
  <path fill="rgb(255,0,0)" d="M 16.5 129 Q 17.5 129.5 16.5 130 Q 15.5 129.5 16.5 129 Z "/>
  <path fill="rgb(255,0,0)" d="M 69.5 129 Q 70.5 129.5 69.5 130 Q 68.5 129.5 69.5 129 Z "/>
  <path fill="rgb(255,0,0)" d="M 91.5 130 Q 92.5 130.5 91.5 131 Q 90.5 130.5 91.5 130 Z "/>
  <path fill="rgb(255,0,0)" d="M 94.5 130 Q 95.5 130.5 94.5 131 Q 93.5 130.5 94.5 130 Z "/>
  <path fill="rgb(255,0,0)" d="M 163.5 130 Q 164.5 130.5 163.5 131 Q 162.5 130.5 163.5 130 Z "/>
  <path fill="rgb(255,0,0)" d="M 17.5 133 Q 18.5 133.5 17.5 134 Q 16.5 133.5 17.5 133 Z "/>
  <path fill="rgb(255,0,0)" d="M 31.5 133 L 33 135.5 Q 31.5 136 32 138.5 Q 33.8 139.2 32.5 140 L 31 138.5 L 31 133.5 L 31.5 133 Z "/>
  <path fill="rgb(255,0,0)" d="M 76.5 134 Q 79.5 133.5 80 135.5 L 79.5 137 L 79 135 L 76.5 135 Q 75.5 134.5 76.5 134 Z "/>
  <path fill="rgb(255,0,0)" d="M 90.5 137 Q 91.5 137.5 90.5 138 Q 89.5 137.5 90.5 137 Z "/>
  <path fill="rgb(255,0,0)" d="M 20.5 138 Q 21.5 138.5 20.5 139 Q 19.5 138.5 20.5 138 Z "/>
  <path fill="rgb(255,0,0)" d="M 116.5 139 Q 117.5 139.5 116.5 140 Q 115.5 139.5 116.5 139 Z "/>
  <path fill="rgb(255,0,0)" d="M 21.5 140 Q 22.5 140.5 21.5 141 Q 20.5 140.5 21.5 140 Z "/>
  <path fill="rgb(255,0,0)" d="M 88.5 141 Q 89.5 141.5 88.5 142 Q 87.5 141.5 88.5 141 Z "/>
  <path fill="rgb(255,0,0)" d="M 37.5 142 Q 38.5 142.5 37.5 143 Q 36.5 142.5 37.5 142 Z "/>
  <path fill="rgb(255,0,0)" d="M 39.5 143 Q 40.5 143.5 39.5 144 Q 38.5 143.5 39.5 143 Z "/>
  <path fill="rgb(255,0,0)" d="M 56.5 143 Q 57.5 143.5 56.5 144 Q 55.5 143.5 56.5 143 Z "/>
  <path fill="rgb(255,0,0)" d="M 61.5 143 L 63 143.5 L 61.5 144 Q 60.5 143.5 61.5 143 Z "/>
  <path fill="rgb(255,0,0)" d="M 146.5 143 Q 147.5 143.5 146.5 144 Q 145.5 143.5 146.5 143 Z "/>
  <path fill="rgb(255,0,0)" d="M 154.5 143 L 156 143.5 L 154.5 144 Q 153.5 143.5 154.5 143 Z "/>
  <path fill="rgb(255,0,0)" d="M 42.5 144 Q 43.5 144.5 42.5 145 Q 41.5 144.5 42.5 144 Z "/>
  <path fill="rgb(255,0,0)" d="M 58.5 144 Q 59.5 144.5 58.5 145 Q 57.5 144.5 58.5 144 Z "/>
  <path fill="rgb(255,0,0)" d="M 135.5 144 Q 136.5 144.5 135.5 145 Q 134.5 144.5 135.5 144 Z "/>
  <path fill="rgb(255,0,0)" d="M 47.5 145 Q 48.5 145.5 47.5 146 Q 46.5 145.5 47.5 145 Z "/>
  <path fill="rgb(255,0,0)" d="M 49.5 145 Q 50.5 145.5 49.5 146 Q 48.5 145.5 49.5 145 Z "/>
  <path fill="rgb(255,0,0)" d="M 125.5 145 L 127 145.5 L 124.5 147 L 124 146.5 L 125.5 145 Z "/>
  <path fill="rgb(255,0,0)" d="M 86.5 146 Q 87.5 146.5 86.5 147 Q 85.5 146.5 86.5 146 Z "/>
  <path fill="rgb(255,0,0)" d="M 128.5 146 L 130 146.5 L 128.5 147 Q 127.5 146.5 128.5 146 Z "/>
  <path fill="rgb(255,0,0)" d="M 163.5 146 Q 164.5 146.5 163.5 147 Q 162.5 146.5 163.5 146 Z "/>
  <path fill="rgb(255,0,0)" d="M 64 147 L 66 147 L 66 148.5 Q 67.8 149.3 66.5 150 Q 64.3 150.3 64 148.5 L 64 147 Z "/>
  <path fill="rgb(255,0,0)" d="M 114.5 147 Q 115.5 147.5 114.5 148 Q 113.5 147.5 114.5 147 Z "/>
  <path fill="rgb(255,0,0)" d="M 29.5 148 Q 30.5 148.5 29.5 149 Q 28.5 148.5 29.5 148 Z "/>
  <path fill="rgb(255,0,0)" d="M 74.5 148 L 76.5 148 Q 76.8 149.3 78.5 149 Q 79 147.5 81.5 148 Q 84.3 149.3 82 150.5 L 81.5 152 L 81 150 Q 79.3 149.5 78.5 151 L 77.5 150 L 74.5 149 Q 73.5 148.5 74.5 148 Z M 82 149 Q 81 150 82 150 Q 83 150 82 149 Z "/>
  <path fill="rgb(255,0,0)" d="M 85.5 148 Q 86.5 148.5 85.5 149 Q 84.5 148.5 85.5 148 Z "/>
  <path fill="rgb(255,0,0)" d="M 115.5 149 L 116 151 L 118 151.5 Q 116.5 152 117 154.5 L 121.5 159 Q 123.5 158.5 124 159.5 L 123.5 160 L 119.5 160 L 116 155.5 L 116 151.5 Q 114.3 150.8 115.5 149 Z "/>
  <path fill="rgb(255,0,0)" d="M 33.5 150 Q 35.5 149.5 36 150.5 Q 35.5 151.5 33.5 151 Q 32.5 150.5 33.5 150 Z "/>
  <path fill="rgb(255,0,0)" d="M 43.5 151 Q 44.5 151.5 43.5 152 Q 42.5 151.5 43.5 151 Z "/>
  <path fill="rgb(255,0,0)" d="M 49.5 151 Q 50.5 151.5 49.5 152 Q 48.5 151.5 49.5 151 Z "/>
  <path fill="rgb(255,0,0)" d="M 53.5 151 Q 54.5 151.5 53.5 152 Q 52.5 151.5 53.5 151 Z "/>
  <path fill="rgb(255,0,0)" d="M 56.5 153 Q 57.5 153.5 56.5 154 Q 55.5 153.5 56.5 153 Z "/>
  <path fill="rgb(255,0,0)" d="M 171.5 153 Q 174.3 152.3 175 153.5 Q 174.3 154.8 171.5 154 L 170.5 155 L 170 154.5 L 171.5 153 Z "/>
  <path fill="rgb(255,0,0)" d="M 70.5 154 Q 71.7 154.7 70 155.5 L 69.5 157 L 69 155.5 L 70.5 154 Z "/>
  <path fill="rgb(255,0,0)" d="M 76.5 154 Q 78.5 153.5 79 154.5 Q 78.5 155.5 76.5 155 Q 75.5 154.5 76.5 154 Z "/>
  <path fill="rgb(255,0,0)" d="M 59.5 155 Q 60.5 155.5 59.5 156 Q 58.5 155.5 59.5 155 Z "/>
  <path fill="rgb(255,0,0)" d="M 82.5 157 Q 83.5 157.5 82.5 158 Q 81.5 157.5 82.5 157 Z "/>
  <path fill="rgb(255,0,0)" d="M 176.5 158 L 177 158.5 L 175.5 160 L 175 159.5 L 176.5 158 Z "/>
  <path fill="rgb(255,0,0)" d="M 135.5 160 L 137 160.5 L 135.5 161 Q 134.5 160.5 135.5 160 Z "/>
  <path fill="rgb(255,0,0)" d="M 178.5 160 Q 179.5 160.5 178.5 161 Q 177.5 160.5 178.5 160 Z "/>
  <path fill="rgb(255,0,0)" d="M 60.5 161 Q 61.5 161.5 60.5 162 Q 59.5 161.5 60.5 161 Z "/>
  <path fill="rgb(255,0,0)" d="M 185.5 161 L 188 163.5 L 188 164.5 Q 187.5 165.5 187 164.5 L 187 163.5 L 185 161.5 L 185.5 161 Z "/>
  <path fill="rgb(255,0,0)" d="M 117.5 162 Q 118.8 164.8 122 165.5 L 120.5 166 L 117 162.5 L 117.5 162 Z "/>
  <path fill="rgb(255,0,0)" d="M 127.5 162 Q 128.5 162.5 127.5 163 Q 126.5 162.5 127.5 162 Z "/>
  <path fill="rgb(255,0,0)" d="M 133.5 162 L 134 163.5 Q 133.5 165.5 130.5 165 L 130 164.5 L 131.5 163 Q 133.2 163.2 133.5 162 Z "/>
  <path fill="rgb(255,0,0)" d="M 139.5 162 Q 140.5 162.5 139.5 163 Q 138.5 162.5 139.5 162 Z "/>
  <path fill="rgb(255,0,0)" d="M 76.5 163 Q 77.5 163.5 76.5 164 Q 75.5 163.5 76.5 163 Z "/>
  <path fill="rgb(255,0,0)" d="M 145.5 164 Q 146.5 164.5 145.5 165 Q 144.5 164.5 145.5 164 Z "/>
  <path fill="rgb(255,0,0)" d="M 168 165 L 170 165.5 L 168 167.5 L 168 170 Q 166.3 169.5 165.5 171 L 165 170.5 L 167 168.5 L 168 165 Z "/>
  <path fill="rgb(255,0,0)" d="M 146.5 166 L 149 168.5 L 148.5 169 L 146 166.5 L 146.5 166 Z "/>
  <path fill="rgb(255,0,0)" d="M 125.5 167 L 126 168.5 Q 125.5 169.5 125 168.5 L 125.5 167 Z "/>
  <path fill="rgb(255,0,0)" d="M 77.5 168 L 78 169.5 Q 77.5 170.5 77 169.5 L 77.5 168 Z "/>
  <path fill="rgb(255,0,0)" d="M 59.5 170 Q 60.5 170.5 59.5 171 Q 58.5 170.5 59.5 170 Z "/>
  <path fill="rgb(255,0,0)" d="M 73.5 170 Q 74.5 170.5 73.5 171 Q 72.5 170.5 73.5 170 Z "/>
  <path fill="rgb(255,0,0)" d="M 157.5 170 L 159 170.5 L 157.5 171 Q 156.5 170.5 157.5 170 Z "/>
  <path fill="rgb(255,0,0)" d="M 160.5 170 Q 161.5 170.5 160.5 171 Q 159.5 170.5 160.5 170 Z "/>
  <path fill="rgb(255,0,0)" d="M 182.5 170 Q 183.5 170.5 182.5 171 Q 181.5 170.5 182.5 170 Z "/>
  <path fill="rgb(255,0,0)" d="M 108.5 171 Q 109.5 171.5 108.5 172 Q 107.5 171.5 108.5 171 Z "/>
  <path fill="rgb(255,0,0)" d="M 72.5 172 Q 73.5 172.5 72.5 173 Q 71.5 172.5 72.5 172 Z "/>
  <path fill="rgb(255,0,0)" d="M 113.5 172 Q 114.5 172.5 113.5 173 Q 112.5 172.5 113.5 172 Z "/>
  <path fill="rgb(255,0,0)" d="M 59.5 173 L 60 174.5 Q 59.5 175.5 59 174.5 L 59.5 173 Z "/>
  <path fill="rgb(255,0,0)" d="M 146.5 174 Q 147.5 174.5 146.5 175 Q 145.5 174.5 146.5 174 Z "/>
  <path fill="rgb(255,0,0)" d="M 74.5 175 L 75 175.5 L 73.5 177 L 73 176.5 L 74.5 175 Z "/>
  <path fill="rgb(255,0,0)" d="M 173.5 175 L 175 175.5 L 173.5 176 Q 172.5 175.5 173.5 175 Z "/>
  <path fill="rgb(255,0,0)" d="M 154.5 177 Q 155.5 177.5 154.5 178 Q 153.5 177.5 154.5 177 Z "/>
  <path fill="rgb(255,0,0)" d="M 168.5 177 Q 169.5 177.5 168.5 178 Q 167.5 177.5 168.5 177 Z "/>
  <path fill="rgb(255,0,0)" d="M 130.5 178 Q 131.5 178.5 130.5 179 Q 129.5 178.5 130.5 178 Z "/>
  <path fill="rgb(255,0,0)" d="M 166.5 178 Q 167.5 178.5 166.5 179 Q 165.5 178.5 166.5 178 Z "/>
  <path fill="rgb(255,0,0)" d="M 160.5 179 Q 161.5 179.5 160.5 180 Q 159.5 179.5 160.5 179 Z "/>
  <path fill="rgb(255,0,0)" d="M 60.5 180 Q 61.5 180.5 60.5 181 Q 59.5 180.5 60.5 180 Z "/>
  <path fill="rgb(255,0,0)" d="M 68.5 180 Q 69.5 180.5 68.5 181 Q 67.5 180.5 68.5 180 Z "/>
  <path fill="rgb(255,0,0)" d="M 71.5 180 Q 72.5 180.5 71.5 181 Q 70.5 180.5 71.5 180 Z "/>
  <path fill="rgb(255,0,0)" d="M 114.5 181 Q 115.5 181.5 114.5 182 Q 113.5 181.5 114.5 181 Z "/>
  <path fill="rgb(255,0,0)" d="M 67.5 183 Q 68.5 183.5 67.5 184 Q 66.5 183.5 67.5 183 Z "/>
  <path fill="rgb(255,0,0)" d="M 113.5 183 L 114 184.5 L 111.5 189 Q 110.3 188.3 111 185.5 L 113.5 183 Z "/>
  <path fill="rgb(255,0,0)" d="M 62.5 184 Q 63.5 184.5 62.5 185 Q 61.5 184.5 62.5 184 Z "/>
  <path fill="rgb(255,0,0)" d="M 69.5 185 L 70 185.5 L 68.5 187 L 68 186.5 L 69.5 185 Z "/>
  <path fill="rgb(255,0,0)" d="M 106.5 186 Q 107.7 186.7 106 187.5 Q 106.5 189.5 105.5 190 Q 104.5 189.5 105 187.5 L 106.5 186 Z "/>
  <path fill="rgb(255,0,0)" d="M 127.5 187 Q 128.5 187.5 127.5 188 Q 126.5 187.5 127.5 187 Z "/>
  <path fill="rgb(255,0,0)" d="M 73.5 191 Q 74.5 191.5 73.5 192 Q 72.5 191.5 73.5 191 Z "/>
  <path fill="rgb(255,0,0)" d="M 106.5 193 Q 108.8 192.3 108 194.5 L 107.5 195 L 106 193.5 L 106.5 193 Z "/>
  <path fill="rgb(255,0,0)" d="M 124.5 194 Q 125.5 194.5 124.5 195 Q 123.5 194.5 124.5 194 Z "/>
  <path fill="rgb(255,0,0)" d="M 80.5 196 Q 81.5 196.5 80.5 197 Q 79.5 196.5 80.5 196 Z "/>
  <path fill="rgb(255,0,0)" d="M 82.5 197 Q 83.5 197.5 82.5 198 Q 81.5 197.5 82.5 197 Z "/>
  <path fill="rgb(255,0,0)" d="M 95.5 202 Q 96.5 202.5 95.5 203 Q 94.5 202.5 95.5 202 Z "/>
  <path fill="rgb(255,0,0)" d="M 98.5 203 Q 99.5 203.5 98.5 204 Q 97.5 203.5 98.5 203 Z "/>
  <path fill="rgb(255,0,0)" d="M 120.5 204 Q 121.5 204.5 120.5 205 Q 119.5 204.5 120.5 204 Z "/>
  <path fill="rgb(255,0,0)" d="M 108.5 205 Q 109.5 205.5 108.5 206 Q 107.5 205.5 108.5 205 Z "/>
  <path fill="rgb(255,0,0)" d="M 113.5 206 Q 114.5 206.5 113.5 207 Q 112.5 206.5 113.5 206 Z "/>
  <path fill="rgb(255,0,0)" d="M 119.5 206 Q 120.5 206.5 119.5 207 Q 118.5 206.5 119.5 206 Z "/>
  <path fill="rgb(255,255,0)" d="M 104.5 9 L 122.5 9 L 123 9 L 123 16.5 Q 122.5 17.5 122 16.5 L 122 14.5 Q 120.5 14 121 11.5 L 119.5 10 L 114.5 10 L 113.5 11 L 104.5 11 Q 103.8 12.5 102 12 L 102 12.5 L 102 21.5 L 104.5 25 L 105.5 24 L 111.5 24 L 113 22.5 Q 113.3 20.3 111.5 20 L 109.5 20 Q 109 21.5 106.5 21 Q 104 20 105 15.5 L 106.5 14 L 113.5 14 Q 114 12.5 116.5 13 L 118 14.5 Q 117.5 17 119 17.5 L 119 22.5 L 120 23.5 L 120 28 L 122.5 28 L 123 28.5 L 122.5 29 L 118.5 29 L 117.5 30 L 108.5 30 L 107.5 31 L 102.5 31 L 101.5 32 Q 99 31.5 98.5 33 L 95.5 33 L 94.5 34 L 92.5 34 L 89.5 36 L 87.5 36 Q 87 37.5 84.5 37 L 83.5 38 L 78.5 40 L 76.5 42 L 73.5 43 L 71.5 45 L 68.5 46 L 65.5 49 L 64.5 49 L 50 63.5 L 50 64.5 L 47 67.5 L 47 68.5 L 43 73.5 L 43 74.5 L 36 87.5 L 36 90.5 L 35 91.5 L 35 93.5 L 33 96.5 L 33 101.5 L 32 102.5 L 32 107.5 L 31 108.5 L 31 115.5 L 29.5 118 L 28.5 117 L 17.5 117 Q 16.8 118.5 15 118 L 15 120.5 L 14.5 121 L 14 120.5 L 14 116 L 19.5 116 L 20.5 115 L 28 115 L 28 112 L 19.5 112 L 18.5 113 L 11 113 L 11 115.5 L 10 116.5 L 10 118.5 L 11 119.5 L 11 131.5 L 12.5 133 L 14 133.5 Q 13.3 134.8 10.5 134 L 9 132.5 L 9 112.5 L 9 112 Q 10.8 112.5 11.5 111 L 25.5 111 L 29 108.5 L 29 104.5 L 30 103.5 L 30 99.5 L 31 98.5 L 31 96.5 Q 32.2 96.2 32 94.5 L 30.5 93 L 27.5 93 L 26.5 92 L 23.5 92 Q 23 90.5 20.5 91 L 18 94.5 L 18 98.5 L 17 99.5 Q 17.3 101.3 19.5 101 L 21 99.5 Q 20.3 95.8 22.5 95 L 24.5 95 L 28 97.5 L 27 98.5 L 27 102.5 L 26 103.5 L 26 106.5 Q 24.5 107.3 25 109 L 22.5 109 L 21.5 108 Q 19 108.5 18.5 107 L 15.5 107 L 14.5 106 L 11.5 106 L 10 104.5 Q 9.3 101.2 11 100.5 L 11 96.5 L 12 95.5 L 12 91.5 L 14 88.5 L 14 86.5 Q 15.5 85.8 15 84 L 19.5 84 L 20.5 85 L 24.5 85 Q 25.3 86.8 28.5 86 Q 29.5 85.5 28.5 85 L 27.5 85 L 23.5 82 L 21.5 82 L 17 78.5 L 17 77.5 L 19 74.5 L 19 72.5 L 21 70.5 L 21 68.5 L 23 66.5 L 23 65.5 L 25 63.5 L 25 62.5 L 27.5 60 L 30.5 60 L 33.5 62 L 40.5 65 L 42.5 67 L 44.5 67 L 48 63.5 L 48 62.5 L 55 55.5 L 55 53.5 Q 54.8 51.8 52.5 52 L 47.5 47 L 45.5 47 L 40 52.5 L 40 55 L 42.5 55 L 44 53.5 Q 43.8 51.3 45.5 51 L 47.5 51 L 51 54.5 L 44 62.5 L 44 64 L 41.5 64 L 38.5 61 L 37.5 61 L 31 54.5 L 31 53.5 L 33 51.5 L 33 50.5 L 39 44.5 L 39 43 L 40.5 43 L 45.5 38 L 46.5 38 L 49.5 41 L 50.5 41 L 58.5 49 Q 60.2 48.7 60.5 50 Q 60.7 48.8 62.5 49 L 65.5 46 L 66.5 46 L 69.5 43 L 72.5 42 L 74 40.5 L 74 39.5 L 72 37.5 L 72 36.5 L 67.5 31 L 65.5 31 Q 65.3 32.2 63.5 32 L 59 35.5 Q 58.8 37.8 60.5 38 L 65.5 35 L 67 35 L 67 36.5 L 69 38.5 L 69 39.5 L 65.5 43 L 64.5 43 L 61.5 46 Q 59.7 45.7 59.5 47 Q 58.8 45.5 57 46 L 57 44.5 L 51 36.5 L 51 33.5 L 57.5 28 L 60.5 27 L 62.5 25 L 63.5 25 L 68.5 22 L 74 28.5 L 75 32 L 77 32 L 77 33.5 Q 77.5 34.5 78 33.5 L 78 31.5 L 75 26.5 L 75 23.5 L 73 20.5 L 79.5 16 L 82.5 16 L 83.5 15 Q 85.2 15.2 85.5 14 L 87.5 14 L 88.5 13 L 95 13 Q 94.5 14.8 96 15.5 L 96 17.5 L 99 22.5 L 99 25.5 L 102.5 30 Q 104.2 30.2 104.5 29 L 107.5 29 L 108.5 28 L 117.5 28 L 118 28 L 118 23.5 L 117 22.5 L 117 16.5 L 115.5 15 Q 112.3 14.3 111.5 16 L 107 16 L 107 19 L 114 19 L 114 25 L 108.5 25 L 107.5 26 L 102.5 26 L 101 24.5 L 101 18.5 L 100 17.5 L 100 11.5 L 101.5 10 Q 104 10.5 104.5 9 Z M 92 14 L 89 16 L 86 16 L 85 17 L 83 17 Q 82 18 81 18 L 80 19 L 78 19 L 75 22 L 76 23 L 76 25 L 78 28 L 78 30 Q 80 30 79 32 Q 81 33 82 31 L 84 31 L 85 30 L 87 30 L 89 28 L 88 26 L 86 26 L 83 28 L 81 28 L 81 27 L 79 24 L 79 22 L 81 22 L 86 19 L 89 19 L 90 18 L 92 18 Q 92 20 93 21 L 93 23 L 95 26 L 95 28 Q 96 28 96 30 Q 97 32 99 31 L 99 28 L 98 27 L 98 25 L 96 22 L 96 20 L 94 17 L 94 16 Q 94 14 92 14 Z M 89 20 Q 88 22 86 21 L 85 22 L 83 22 Q 81 23 81 25 L 86 25 L 87 24 L 89 24 Q 89 26 90 27 L 90 30 L 89 31 L 86 31 L 81 34 L 78 34 Q 78 36 80 37 L 82 37 L 87 34 L 89 34 L 90 33 L 92 33 L 95 31 L 95 30 L 93 28 L 93 25 Q 92 24 92 22 Q 92 20 89 20 Z M 67 25 L 63 28 L 60 29 L 58 31 L 57 31 L 53 35 L 53 37 Q 54 37 54 39 L 60 45 L 67 40 Q 67 37 66 37 L 65 37 L 62 40 L 60 40 L 57 38 L 57 34 L 59 34 L 61 32 L 64 31 L 66 29 L 69 29 L 69 31 L 73 36 L 73 37 L 76 39 L 78 39 L 77 36 L 74 33 L 74 32 L 72 30 L 72 29 L 69 25 L 67 25 Z M 46 40 L 36 50 L 36 51 L 33 54 L 33 55 L 42 62 L 43 62 L 48 56 L 48 53 L 45 53 L 45 55 L 43 57 L 41 57 L 38 55 L 38 53 L 40 51 L 40 49 L 42 49 Q 42 47 44 46 L 45 46 L 45 44 L 47 44 L 52 49 L 53 49 L 57 53 L 58 53 L 59 52 L 53 45 L 51 45 L 51 43 L 50 43 L 47 40 L 46 40 Z M 30 61 Q 29 63 27 62 L 27 64 L 25 66 L 23 71 L 21 73 L 21 75 L 19 77 L 19 78 L 22 80 L 29 83 L 30 84 L 31 83 L 34 76 Q 34 74 32 74 Q 30 75 30 78 L 29 79 L 27 79 L 23 77 Q 25 76 24 74 L 26 72 L 27 69 L 28 68 L 28 66 L 32 66 L 41 71 L 43 71 L 43 68 L 42 68 L 33 63 L 32 63 L 30 61 Z M 31 67 L 28 70 L 26 75 L 25 76 Q 25 77 28 77 L 29 76 L 30 72 L 33 72 L 36 75 L 36 77 L 34 79 Q 34 80 33 81 L 33 83 L 31 86 Q 30 88 34 87 L 35 86 L 40 75 L 41 74 L 39 71 Q 37 71 37 70 L 35 70 L 31 67 Z M 18 85 L 15 89 L 15 92 Q 14 92 14 95 L 13 96 L 13 99 L 12 100 L 12 104 L 14 105 Q 16 105 17 106 L 22 106 Q 22 108 24 107 L 24 104 Q 26 103 25 101 L 26 100 Q 27 96 24 97 Q 21 98 22 102 L 21 103 L 18 103 L 15 101 Q 15 99 16 99 L 16 97 L 17 96 L 17 93 L 20 89 Q 21 89 22 90 L 25 90 L 26 91 L 30 91 Q 30 92 32 92 Q 34 91 33 89 Q 31 90 31 88 L 27 88 Q 26 86 23 87 L 22 86 L 19 86 L 18 85 Z "/>
  <path fill="rgb(255,255,0)" d="M 128 9 L 128.5 9 L 138.5 9 L 139.5 10 L 142.5 10 L 143.5 11 L 145.5 11 Q 146 12.5 148.5 12 L 150 13.5 L 150 18.5 L 149 19.5 L 149 26.5 Q 149.5 27.5 150 26.5 L 150 24.5 L 153 19.5 L 153 17.5 L 155.5 14 L 157.5 14 L 158.5 15 L 160.5 15 Q 161 16.5 163.5 16 L 164.5 17 L 171.5 20 L 173.5 22 L 175 22 L 175 25.5 L 174 26.5 L 174 28.5 Q 172.7 28.8 173 30.5 L 171 33.5 L 171 35.5 L 169 38.5 L 169 40.5 L 170.5 42 L 173.5 43 L 176.5 46 L 177.5 46 L 180.5 49 Q 182.2 48.7 182.5 50 L 186 46.5 L 186 45.5 L 189 42.5 Q 188.7 40.7 190 40.5 L 184.5 35 Q 182.7 35.2 182.5 34 Q 180.8 34.3 181 36.5 L 185 40.5 L 185 42.5 L 182.5 45 L 180.5 45 L 177.5 42 L 176.5 42 L 172 38.5 L 172 36.5 L 174 34.5 L 174 33.5 L 180.5 26 L 182.5 26 L 184.5 28 L 185.5 28 L 187.5 30 L 188.5 30 L 198 38.5 L 198 40.5 L 195 43.5 L 195 44.5 L 193 46.5 L 193 47.5 L 190 50.5 L 190 51.5 L 188 53.5 L 188 55.5 L 192 59.5 L 192 60.5 L 195 63.5 L 195 64.5 L 198.5 68 L 207 61.5 L 207 58.5 Q 205.7 58.3 206 56.5 L 201.5 52 Q 199.8 52.3 200 54.5 L 203 58.5 L 203 61 L 201.5 61 L 199.5 63 L 198.5 63 L 191 54.5 L 191 52 L 192.5 52 L 200.5 45 L 203.5 44 L 211 52.5 L 211 53.5 L 213 55.5 L 214 58.5 L 216 60.5 L 216 62.5 L 203.5 72 L 203 70.5 L 214 61.5 L 213 58.5 L 204 47.5 L 204 46 L 201.5 46 L 193 53.5 L 193 55 L 195 55 L 195 56.5 L 198 59.5 L 198 61 L 201 61 L 201 58.5 L 198 54.5 L 198 53.5 L 201.5 50 L 202.5 51 Q 204.8 50.3 204 52.5 L 207 55.5 L 207 56.5 L 210 59.5 L 210 60.5 L 199.5 70 L 197.5 70 L 194 66.5 L 194 65.5 L 183 54.5 L 183 53 L 181.5 53 L 176.5 48 L 175.5 48 L 173.5 46 L 172.5 46 L 169.5 43 L 166.5 42 L 164.5 40 L 162.5 40 L 158.5 37 L 156.5 37 L 153.5 35 L 151.5 35 L 150.5 34 Q 148 34.5 147.5 33 L 144.5 33 L 143.5 32 L 140.5 32 L 139.5 31 Q 137.5 31.5 137 30.5 Q 137.8 29.3 140.5 30 L 142 28.5 L 142 23.5 L 143 22.5 L 143 18.5 L 141.5 17 Q 139 17.5 138.5 16 L 132 16 L 132 14 L 136.5 14 L 137.5 15 L 141.5 15 L 142.5 16 L 145 16 L 145 19.5 L 144 20.5 L 144 27.5 L 143 28.5 L 144.5 31 L 147 28.5 L 147 20.5 L 148 19.5 L 148 14.5 L 146.5 13 L 143.5 13 L 142.5 12 Q 140 12.5 139.5 11 L 129.5 11 L 129 11 L 129 14 L 127 14 L 127 11.5 Q 128.5 10.8 128 9 Z M 157 16 L 154 19 Q 155 21 153 22 L 153 24 L 151 26 Q 153 26 152 28 L 155 28 L 160 31 Q 161 31 161 29 L 160 27 L 156 26 L 156 23 Q 158 22 157 20 L 160 20 L 161 21 L 163 21 L 168 24 L 169 24 L 169 28 L 168 29 L 168 31 Q 167 31 167 33 L 166 34 L 166 36 L 165 37 L 165 39 L 168 39 L 168 37 L 171 32 L 171 30 L 173 27 L 173 24 L 172 22 L 167 20 L 166 19 L 164 19 L 159 16 L 157 16 Z M 158 22 L 158 25 L 162 26 L 163 28 L 163 30 Q 162 30 162 32 L 159 32 Q 158 31 156 31 L 155 30 L 153 30 L 150 28 Q 147 27 148 31 L 152 33 Q 154 33 155 34 L 157 34 L 162 37 L 163 37 L 164 36 Q 164 34 165 34 L 165 32 L 167 29 L 167 25 Q 165 25 164 23 L 162 23 L 161 22 L 158 22 Z M 181 28 L 177 33 L 177 34 L 174 37 L 174 38 L 181 43 Q 184 44 183 41 L 178 37 L 182 32 L 183 32 L 185 34 L 186 34 L 192 40 L 192 41 L 190 43 L 190 44 L 184 51 L 184 52 Q 184 53 187 53 L 191 48 L 191 47 L 193 45 L 193 44 L 196 41 L 195 37 L 194 37 L 183 28 L 181 28 Z "/>
  <path fill="rgb(255,255,0)" d="M 135 19 L 137.5 19 L 140 21.5 L 139 22.5 L 139 25 L 137 24.5 Q 138.3 24.2 138 22.5 Q 137.1 20.5 135 21 L 135 19 Z "/>
  <path fill="rgb(255,255,0)" d="M 123.5 22 Q 124.8 22.8 124 25.5 Q 123.5 26.5 123 25.5 Q 122.3 22.8 123.5 22 Z "/>
  <path fill="rgb(255,255,0)" d="M 127 22 L 130 22 L 130 24.5 L 132 27.5 L 132 29.5 Q 131.5 30.5 131 29.5 L 131 28 L 128 28 L 128 26.5 Q 129.8 25.8 128.5 25 L 127 25 L 127 22 Z "/>
  <path fill="rgb(255,255,0)" d="M 134.5 58 L 137 61.5 L 134.5 65 L 133 65 L 133 60.5 L 134.5 58 Z "/>
  <path fill="rgb(255,255,0)" d="M 165 58 L 167.5 58 L 169 59.5 Q 168.3 63.8 171 64.5 L 169 65 L 169 67.5 L 168.5 68 Q 166.8 67.8 167 65.5 Q 168.3 65.3 168 63.5 L 165 59.5 L 165 58 Z "/>
  <path fill="rgb(255,255,0)" d="M 217.5 66 L 218.5 66 L 221 68.5 L 221 69.5 L 225 76.5 L 225 78.5 L 226 79.5 L 226 81.5 L 227 82.5 Q 226.5 85 228 85.5 L 225.5 88 L 211.5 94 L 211 93.5 L 213.5 91 L 215.5 91 L 216.5 90 L 223.5 87 L 225 85.5 L 225 81.5 L 222 76.5 L 222 74.5 L 219 69.5 L 219 68 L 216.5 68 L 214.5 70 L 212.5 70 L 211.5 71 L 206.5 73 L 206 72.5 L 208.5 70 L 210.5 70 L 217.5 66 Z "/>
  <path fill="rgb(255,255,0)" d="M 128.5 69 L 132 69 L 132 72 Q 130.3 71.5 129.5 73 Q 128.8 71.5 127 72 Q 126.5 69.9 128.5 69 Z "/>
  <path fill="rgb(255,255,0)" d="M 215.5 72 Q 217.8 71.8 218 73.5 L 222 83.5 L 220.5 85 L 219.5 85 L 216.5 87 L 216 85 L 217.5 85 L 220 82.5 L 219 81.5 L 219 79.5 Q 217.5 79 218 76.5 L 215.5 74 Q 213.7 73.7 213.5 75 L 213 73 Q 214.8 73.5 215.5 72 Z "/>
  <path fill="rgb(255,255,0)" d="M 153.5 81 Q 154.5 81.5 153.5 82 Q 152.5 81.5 153.5 81 Z "/>
  <path fill="rgb(255,255,0)" d="M 119.5 85 L 120 85.5 L 120 88 Q 118.3 87.5 117.5 89 Q 116.2 88.2 118 87.5 Q 117.8 85.3 119.5 85 Z "/>
  <path fill="rgb(255,255,0)" d="M 162 86 L 164 86.5 L 162.5 88 L 162 87.5 L 162 86 Z "/>
  <path fill="rgb(255,255,0)" d="M 110 89 Q 112.5 88.5 113.5 91 L 115.5 91 Q 115.7 92.3 117.5 92 L 119 93.5 L 121 98.5 L 119 100.5 L 119 103.5 Q 116.3 104.3 117 108.5 L 114.5 111 Q 111.2 112.1 112 109.5 Q 113.5 109 113 106.5 L 116 103.5 L 116 98 L 114.5 98 L 112 95.5 L 112 93.5 L 110 90.5 L 110 89 Z "/>
  <path fill="rgb(255,255,0)" d="M 226.5 92 Q 229.5 91.5 230 93.5 Q 229.7 95.2 231 95.5 L 231 99.5 L 232 100.5 L 232 104.5 Q 233.5 105 233 107.5 L 232 108.5 L 232 115 L 227.5 115 L 226.5 116 L 221.5 116 L 220.5 117 L 217.5 117 L 216.5 118 L 214 118 L 214 118.5 L 214 127.5 L 213 128.5 L 213 133.5 L 214.5 135 L 224.5 135 L 226 133.5 L 226 126.5 Q 224.5 123.5 223 126.5 Q 224 131 221.5 132 L 218.5 132 Q 217.8 130.5 216 131 L 216 127.5 L 217 126.5 L 217 119.5 L 218.5 118 Q 221.8 117.3 222.5 119 L 231.5 119 L 232 119 L 232 127.5 L 233 128.5 L 233 132.5 L 232 133.5 L 232 136.5 Q 230.3 137.3 231 140.5 L 229.5 142 L 219.5 142 L 219 142 L 219 140 L 219.5 140 L 228.5 140 L 230 138.5 L 230 133.5 L 231 132.5 L 231 121.5 L 231 121 L 224.5 121 L 223.5 120 Q 221 120.5 220.5 119 L 219 120.5 L 219 126.5 L 218 127.5 L 218 130 L 221 130 L 221 128.5 L 222 127.5 L 222 124 L 228 124 L 228 132.5 Q 226.5 133 227 135.5 L 225.5 137 L 218.5 137 L 217.5 136 L 213 136 L 213 139 L 215.5 139 L 217 140.5 L 216.5 141 Q 212 140 211 142.5 Q 211.5 145 210 145.5 L 210 148.5 L 209 149.5 L 209 151.5 L 207 154.5 L 207 157 L 209.5 157 L 210.5 158 L 212.5 158 L 215.5 160 L 219 160 L 219 158.5 L 221 155.5 L 221 153.5 Q 222.3 153.3 222 151.5 Q 221.1 149.5 219 150 Q 219.5 151.8 218 152.5 L 218 154.5 L 216.5 156 L 214.5 156 L 211 153.5 L 212 152.5 Q 211.5 150 213 149.5 L 213 145.5 Q 215.5 144.5 215 142 L 217.5 142 L 219.5 144 L 222.5 144 L 223.5 145 Q 226 144.5 226.5 146 L 229 146 L 229 151.5 L 228 152.5 L 228 155.5 Q 226.5 156 227 158.5 L 226 159.5 L 223 166.5 L 221.5 168 Q 219.7 168.2 219.5 167 L 217.5 167 L 216.5 166 L 213.5 166 L 212.5 165 Q 210.7 165.2 210.5 164 L 208.5 164 L 207.5 163 L 203 163 L 203 164.5 L 202 165.5 L 201 168.5 L 195 176.5 L 200.5 181 L 201.5 181 L 204.5 183 L 207 183 L 207 181.5 L 209 179.5 L 209 178.5 L 211 176.5 L 211 175.5 Q 210.8 173.8 208.5 174 L 204.5 179 L 200 175.5 L 201 174.5 L 202 171.5 L 204 169.5 L 205 166.5 L 206.5 165 L 209.5 166 L 212.5 169 L 215.5 170 L 217.5 172 L 219 172 L 219 175.5 L 216 179.5 L 215 182.5 L 213 184.5 L 213 185.5 L 206.5 192 L 204.5 190 L 203.5 190 L 199.5 187 L 196.5 186 L 196 186.5 L 198 188.5 L 198 189.5 L 204 195.5 L 194.5 205 L 193.5 205 L 190.5 208 L 189.5 208 L 187.5 210 L 186.5 210 L 180 203.5 L 180 202 Q 178.3 202.5 177.5 201 L 177 202.5 L 180 206.5 L 180 208.5 L 182 210.5 L 183 214 L 181.5 214 L 179.5 216 L 176.5 217 L 172.5 220 L 170.5 220 L 165.5 223 L 162 223 L 162 221.5 L 160 219.5 L 160 218.5 L 155 209.5 L 155 208 Q 153.3 208.5 152.5 207 L 151.5 208 L 149.5 208 L 148.5 209 Q 146 208.5 145.5 210 L 142.5 210 L 141.5 211 L 138 211 L 138 217.5 Q 139.8 218.3 139 221.5 L 140.5 223 L 146.5 223 L 150 220.5 L 150 219 L 146.5 219 Q 146 220.5 143.5 220 L 141 216.5 L 141 214 Q 142.8 214.5 143.5 213 L 146.5 213 L 147.5 212 Q 150 212.5 150.5 211 L 154 211 Q 153.5 212.8 155 213.5 L 155 215.5 L 156 216.5 L 156 220.5 L 157 221.5 L 157 226 Q 155.3 225.5 154.5 227 L 152.5 227 L 149.5 229 L 144.5 229 L 143.5 230 L 140.5 230 Q 139.8 231.8 136.5 231 L 135 229.5 L 135 226.5 L 134 225.5 L 134 222.5 L 133 221.5 Q 133.5 219 132 218.5 L 132 215.5 L 129.5 212 Q 127 211.5 126.5 213 L 114.5 213 L 114 213 L 114 213.5 L 114 223.5 L 115.5 225 L 124 225 L 124 222 L 118.5 222 L 117 220.5 L 117 216 L 117.5 216 L 127.5 216 Q 127.8 214.7 129.5 215 L 131 216.5 L 131 230.5 L 129.5 232 L 110.5 232 Q 109.8 230.5 108 231 L 108 230.5 L 108 212.5 L 106.5 211 L 101.5 211 L 100.5 210 L 97.5 210 L 96.5 209 L 94.5 209 Q 94.3 207.7 92.5 208 L 91 209.5 Q 91.5 212 90 212.5 L 90 216.5 Q 88.5 217 89 219.5 L 92.5 222 L 95.5 222 Q 95.8 223.3 97.5 223 Q 99.5 222.1 99 220 Q 97.3 220.5 96.5 219 L 94.5 219 L 93 217.5 Q 92 213 94.5 212 Q 96.2 211.7 96.5 213 L 99.5 213 L 100.5 214 L 105.5 214 L 107 215.5 L 107 217.5 L 105 220.5 L 105 225.5 Q 103.5 226 104 228.5 L 102.5 230 Q 99.3 230.8 98.5 229 L 93.5 229 L 92.5 228 L 90.5 228 L 87.5 226 L 84.5 226 L 81 222.5 L 82 221.5 Q 81.5 219 83 218.5 Q 82.3 215.3 84 214.5 L 84 210.5 L 85 209.5 L 86 206.5 L 84.5 205 L 75.5 201 L 71.5 198 Q 70.8 199.5 69 199 L 69 201.5 L 67 203.5 L 65 208.5 L 67.5 211 L 68.5 211 L 72.5 214 L 75 211.5 L 74.5 211 L 73.5 211 L 69 207.5 L 69 206.5 L 71 204.5 L 71 203 L 73.5 203 L 75.5 205 L 77.5 205 L 78.5 206 L 81.5 207 L 83 208.5 L 78 219.5 L 75.5 222 L 64.5 217 L 58.5 212 L 57 212 L 57 208.5 L 59 206.5 L 63 197.5 L 65 195.5 L 65 193 L 63.5 193 L 53.5 183 Q 51.7 183.2 51.5 182 L 51 183.5 L 44 190.5 L 44 191.5 L 49.5 198 Q 53.3 199.3 52 195.5 L 48 191.5 L 48 190 L 50 190 L 50 188.5 Q 50.3 186.8 52.5 187 L 58.5 193 Q 60.8 192.8 61 194.5 L 61 196.5 L 57 200.5 L 57 202 Q 54.9 201.5 54 203.5 Q 54.8 205.8 52.5 205 L 50.5 207 L 46.5 203 L 45.5 203 L 39 196.5 L 39 195.5 L 36 192.5 L 36 189.5 L 48 177.5 L 48 176.5 L 45 173.5 L 44 170.5 L 40 165.5 L 39 162 L 37.5 162 L 36.5 163 L 33.5 164 L 28 168.5 L 29 169.5 L 31 174.5 L 32.5 176 Q 36.3 177.3 35 173.5 L 33 171.5 L 33 168 Q 35.5 168.5 36.5 166 L 40 169.5 L 40 170.5 L 44 175.5 L 44 178 L 42.5 178 L 40.5 180 L 37.5 181 L 34.5 184 L 31.5 185 L 28 181.5 L 28 180.5 L 24 175.5 L 24 173.5 L 22 171.5 Q 22.2 169.7 21 169.5 L 21 167.5 L 20 166.5 L 23.5 163 L 26.5 162 L 32 157.5 L 30.5 157 L 29.5 158 L 27.5 158 Q 27.2 159.3 25.5 159 L 24.5 160 L 21.5 160 L 20.5 161 L 17 161 L 17 159.5 L 15 156.5 L 15 154.5 Q 13.5 154 14 151.5 L 13 150.5 L 13 147.5 L 12 146.5 L 12 139 L 14.5 139 Q 15.3 137.5 17 138 L 17 140 L 14.5 140 Q 12.5 140.5 13 143.5 L 14 144.5 Q 13.5 147 15 147.5 L 15 150.5 L 16 151.5 L 16 153.5 L 17 154.5 L 17 156.5 Q 18.5 157.3 18 159 L 22.5 159 L 25.5 157 L 28.5 157 L 30 155.5 L 30 154 L 32 154 L 32 157 L 35 157 Q 34.5 154.9 36.5 154 L 38 155.5 L 38 156.5 L 39 157.5 L 43 166.5 L 45 168.5 L 46 171.5 L 48 173.5 L 48 174.5 L 54 180.5 L 54 182 L 55.5 182 L 66.5 193 L 67.5 193 L 75.5 199 L 77.5 199 L 81.5 202 L 83.5 202 L 88.5 205 L 90.5 205 L 91.5 206 Q 94 205.5 94.5 207 L 97.5 207 L 98.5 208 L 101.5 208 L 102.5 209 L 107.5 209 L 108.5 210 L 133.5 210 L 134.5 209 L 139.5 209 L 140.5 208 L 144.5 208 L 145.5 207 L 147.5 207 L 148.5 206 Q 151 206.5 151.5 205 L 154.5 205 L 155.5 204 L 168.5 198 L 170.5 196 L 171.5 196 L 173.5 194 L 174.5 194 L 178.5 190 L 179.5 190 L 192 177.5 L 192 176.5 L 195 173.5 L 195 172.5 L 199 167.5 L 202 160.5 L 204 158.5 L 204 156.5 L 206 153.5 L 206 151.5 L 207 150.5 L 207 148.5 L 208 147.5 L 208 145.5 L 209 144.5 Q 208.5 142 210 141.5 L 210 137.5 L 211 136.5 L 211 132.5 L 212 131.5 L 212 108.5 L 211 107.5 L 211 104.5 L 210 103.5 L 210 99.5 L 209 98.5 L 209 96 L 211 96 L 211 98.5 L 212 99.5 Q 211.3 102.8 213 103.5 L 213 109.5 L 214.5 111 L 219.5 111 L 220.5 110 L 223.5 110 Q 224.3 108.5 226 109 L 226 104.5 L 225 103.5 L 225 100 L 222 100 L 222 104.5 Q 224.2 105.8 221.5 107 L 216 107 L 216 102.5 L 215 101.5 L 215 98.5 Q 213.5 98 214 95.5 L 215.5 94 L 219.5 94 L 220.5 93 L 225.5 93 L 226.5 92 Z M 224 94 L 223 95 L 219 95 Q 218 97 216 96 L 216 100 L 217 101 L 217 104 Q 219 104 218 106 Q 220 107 221 105 Q 221 103 220 103 L 220 100 L 222 98 L 225 97 L 227 100 L 227 105 L 228 106 L 228 110 L 227 111 Q 224 111 224 112 L 218 112 Q 217 113 216 113 Q 214 114 214 116 L 218 116 L 219 115 L 224 115 L 225 114 L 229 114 Q 229 113 231 113 L 231 106 L 230 105 L 230 99 Q 229 98 229 96 Q 228 93 224 94 Z M 216 144 Q 217 146 215 147 L 215 149 L 213 152 L 213 153 Q 214 155 216 154 L 216 153 L 218 150 L 218 148 L 221 148 L 224 151 Q 224 152 223 153 L 223 155 L 222 156 L 222 158 L 220 161 L 220 162 L 218 162 Q 217 161 215 161 L 214 160 L 211 160 L 208 158 L 207 158 Q 205 159 205 161 Q 207 161 208 162 L 210 162 L 211 163 L 213 163 L 214 164 L 216 164 L 217 165 L 219 165 L 220 166 L 222 166 L 222 164 L 225 159 L 225 156 L 227 153 L 227 151 Q 229 150 228 148 L 227 148 L 224 146 L 222 146 L 221 145 L 219 145 Q 218 144 216 144 Z M 35 158 L 33 160 L 30 161 L 22 167 L 23 170 L 26 174 L 28 179 L 32 183 L 35 182 L 42 177 L 42 176 L 39 172 L 39 171 L 38 169 L 35 169 L 35 172 L 37 175 L 37 177 Q 35 177 35 178 L 33 178 L 30 176 L 30 175 L 28 173 L 27 170 L 26 169 Q 28 168 27 166 L 29 166 L 31 164 L 34 163 L 36 161 L 37 161 L 37 158 L 35 158 Z M 208 167 L 205 170 L 204 173 L 202 175 L 202 176 Q 202 177 205 177 L 206 176 L 207 172 L 211 172 L 211 174 L 213 174 L 213 177 L 209 182 L 209 183 L 207 185 L 205 185 L 201 182 L 198 181 L 195 178 L 194 179 Q 191 178 192 181 L 197 184 L 200 185 L 202 187 L 203 187 L 207 190 L 210 187 L 210 186 L 212 184 L 212 183 L 214 181 L 214 180 L 216 178 Q 216 176 217 176 L 217 174 L 208 167 Z M 49 179 L 42 186 Q 43 188 41 187 L 38 191 L 38 193 L 51 205 Q 51 204 53 204 L 53 203 L 59 197 L 59 196 L 54 190 L 51 190 L 51 193 L 54 196 L 54 198 L 52 200 L 50 200 L 42 193 L 42 191 L 47 186 L 47 185 Q 48 183 50 183 Q 50 181 51 181 Q 51 179 49 179 Z M 191 182 L 183 190 L 182 190 Q 179 191 180 195 Q 181 197 183 196 L 183 198 L 187 201 L 189 201 Q 189 200 191 200 L 195 196 Q 196 193 194 194 L 193 193 L 189 197 L 188 197 L 184 194 L 184 193 L 188 189 L 189 189 L 189 187 L 191 187 L 193 184 Q 193 182 191 182 Z M 196 185 Q 195 186 196 186 Q 197 186 196 185 Z M 193 187 L 189 191 Q 186 190 187 193 Q 185 194 188 195 L 189 195 L 193 191 L 194 191 L 197 195 L 197 196 L 191 202 L 190 202 L 188 204 L 178 194 L 176 194 L 176 197 L 180 201 Q 179 203 182 202 Q 183 202 183 205 L 187 208 L 188 208 L 190 206 L 191 206 L 201 197 L 201 195 L 195 189 Q 196 186 193 187 Z M 67 196 L 65 198 L 63 203 L 61 205 L 59 211 L 62 213 L 65 214 L 67 216 L 70 217 L 71 218 L 72 218 L 74 220 L 76 220 L 76 219 L 78 217 L 78 215 L 80 213 L 81 210 L 80 208 L 75 206 L 74 205 Q 71 204 72 208 L 77 212 L 74 216 L 69 213 L 68 213 L 63 210 L 63 208 Q 64 207 64 206 L 66 204 L 68 199 L 69 198 Q 70 195 67 196 Z M 173 197 L 171 199 L 168 200 L 166 202 L 164 202 L 160 205 L 160 207 L 162 209 L 164 214 L 166 215 L 168 215 L 173 212 L 174 212 L 174 209 L 172 209 L 169 211 L 168 211 L 165 209 L 165 205 L 169 204 L 171 202 L 174 201 L 175 200 Q 176 200 177 201 L 177 200 L 175 197 L 173 197 Z M 174 202 L 172 204 L 169 205 L 166 208 L 168 209 L 173 207 L 174 206 L 176 210 L 176 212 L 174 214 L 169 216 L 168 217 L 164 217 L 164 216 L 162 214 L 162 212 L 160 210 L 159 207 Q 158 205 156 205 L 156 209 L 159 213 L 162 220 L 164 221 Q 166 222 167 220 L 169 220 L 171 218 Q 172 218 173 217 L 175 217 L 179 214 L 180 214 L 180 211 L 177 206 L 177 205 L 175 202 L 174 202 Z M 87 207 L 87 210 Q 86 210 86 213 L 85 214 L 85 217 L 84 218 L 84 223 L 86 224 Q 87 224 88 225 L 90 225 L 91 226 L 94 226 Q 94 228 97 227 L 98 228 L 102 228 Q 102 226 103 226 L 103 224 L 104 223 L 104 220 L 105 219 L 105 216 L 103 216 L 102 215 L 99 215 L 98 214 L 95 214 L 95 217 Q 97 217 98 218 L 100 218 L 101 220 L 101 222 Q 100 222 100 224 L 95 224 Q 94 222 91 223 L 87 221 L 87 218 Q 89 217 88 215 L 89 214 L 89 211 L 90 210 L 90 207 L 87 207 Z M 111 212 L 109 214 L 109 228 L 111 229 Q 114 228 115 230 L 128 230 L 129 229 L 129 218 L 129 217 L 129 217 L 120 217 L 119 218 L 119 220 L 125 220 L 126 222 Q 127 226 125 227 L 118 227 Q 117 225 114 226 L 112 225 L 113 224 L 113 214 Q 113 212 111 212 Z M 133 212 L 133 217 L 135 220 L 135 224 L 136 225 L 136 227 Q 138 227 137 229 L 141 229 L 142 228 L 146 228 Q 146 227 149 227 L 150 226 L 154 226 L 156 224 Q 156 222 155 222 L 155 220 L 154 219 L 154 217 L 153 216 L 153 213 L 151 213 L 150 214 L 146 214 L 143 217 L 145 218 Q 146 218 147 217 L 151 217 L 151 220 Q 152 220 152 222 L 149 224 L 145 224 L 144 225 L 140 225 L 138 224 L 138 220 L 137 219 L 137 216 Q 136 215 136 214 Q 135 212 133 212 Z "/>
  <path fill="rgb(255,255,0)" d="M 176.5 98 L 177 98.5 L 172.5 103 L 168 100.5 L 168.5 100 L 173.5 100 L 176.5 98 Z "/>
  <path fill="rgb(255,255,0)" d="M 107.5 99 Q 108.5 99.5 108 101.5 Q 106.3 102.3 107 105.5 L 105 107.5 Q 105.5 109.5 104.5 110 Q 103.5 109.5 104 107.5 L 106 105.5 L 106 104.5 Q 104.8 104.3 105 102.5 Q 107 101.5 107.5 99 Z "/>
  <path fill="rgb(255,255,0)" d="M 56.5 102 Q 57.5 102.5 57 104.5 Q 56.1 106.5 54 106 L 54 104 L 56 104 L 56.5 102 Z "/>
  <path fill="rgb(255,255,0)" d="M 68.5 103 Q 70.8 102.8 71 104.5 Q 71.8 106.8 69.5 106 L 68.5 107 L 66 107 L 66 105.5 L 68.5 103 Z "/>
  <path fill="rgb(255,255,0)" d="M 101.5 111 Q 102.3 112.5 104 112 L 103 115.5 L 106 118.5 L 104.5 120 Q 101.2 121.1 102 118.5 Q 100 117.5 102 116.5 L 100 114.5 Q 99.5 111.5 101.5 111 Z "/>
  <path fill="rgb(255,255,0)" d="M 147 121 Q 149.1 120.5 150 122.5 L 151 126 L 148.5 126 L 147 124.5 L 147 121 Z "/>
  <path fill="rgb(255,255,0)" d="M 35.5 124 Q 36.8 124.8 36 127.5 L 33 132.5 L 34 133.5 L 34 138.5 L 37 141.5 Q 36.3 142.7 35.5 141 L 34.5 141 L 32 138.5 Q 31.5 136 33 135.5 L 31 132.5 L 31 130 Q 33.1 130.5 34 128.5 L 35.5 124 Z "/>
  <path fill="rgb(255,255,0)" d="M 85.5 126 L 89 129.5 L 90 132.5 L 84 143.5 Q 85 148 82.5 149 Q 82 147.5 79.5 148 Q 79.2 149.3 77.5 149 Q 77 147.5 74.5 148 L 73.5 149 L 69.5 149 Q 69.3 150.3 67.5 150 L 66 148.5 L 65 145.5 L 65.5 145 L 67.5 147 L 72.5 147 Q 73.3 145.5 75 146 L 75 141.5 L 73.5 140 Q 71.3 140.3 71 138.5 L 71 136.5 Q 72.5 136 72 133.5 Q 70.5 133 71 130.5 Q 71.5 129.5 72 130.5 L 72 131.5 L 74.5 134 Q 76.2 133.7 76.5 135 L 79 135 Q 78.5 136.8 80 137.5 L 80 139.5 L 81.5 141 L 82.5 141 L 85 138.5 Q 84.7 136.7 86 136.5 L 84 134.5 L 84 127.5 L 85.5 126 Z "/>
  <path fill="rgb(255,255,0)" d="M 160.5 126 Q 161.5 126.5 161 128.5 L 162 129.5 L 161.5 130 L 159 130 L 159 128.5 L 160.5 126 Z "/>
  <path fill="rgb(255,255,0)" d="M 121.5 135 L 124 135 L 124 139.5 L 121.5 143 Q 119.3 142.8 119 144.5 L 119 147.5 L 121.5 150 L 125.5 146 L 127.5 146 Q 127.8 147.3 129.5 147 L 130.5 146 L 132.5 146 Q 132.8 144.7 134.5 145 L 135 145.5 L 132 148.5 L 132 152 L 130.5 152 Q 129.8 153.8 126.5 153 L 125 154.5 L 125 157.5 L 127.5 160 Q 129.2 159.7 129.5 161 L 133.5 161 L 134 161.5 L 132.5 163 L 129.5 164 L 123.5 159 L 121.5 159 L 117 154.5 Q 116.5 152 118 151.5 L 116 151 L 116 149.5 L 114 146.5 L 114 144.5 Q 115.5 144 115 141.5 L 119.5 136 Q 121.2 136.2 121.5 135 Z "/>
  <path fill="rgb(255,255,0)" d="M 18.5 142 L 19 142.5 L 19 148.5 L 20 149.5 L 21 152.5 L 22.5 154 Q 24.5 153.5 24 150.5 L 22 147.5 L 23.5 146 L 24 146.5 L 24 148.5 L 26 151.5 L 26 154 Q 24.3 153.5 23.5 155 L 20 155 L 20 153.5 L 18 150.5 L 18 146.5 Q 16.5 146 17 143.5 L 18.5 142 Z "/>
  <path fill="rgb(255,255,0)" d="M 43.5 144 Q 44.5 144.5 43.5 145 Q 42.5 144.5 43.5 144 Z "/>
  <path fill="rgb(255,255,0)" d="M 45.5 145 L 47 145.5 L 45.5 146 Q 44.5 145.5 45.5 145 Z "/>
  <path fill="rgb(255,255,0)" d="M 79.5 154 L 81 154.5 L 78.5 157 L 73.5 157 L 73 157.5 Q 74.5 158.3 74 160 Q 76.1 159.5 77 161.5 L 76.5 163 L 70 156.5 L 70 155 L 78.5 155 L 79.5 154 Z "/>
  <path fill="rgb(255,255,0)" d="M 169.5 154 L 170 155.5 Q 168.3 156.3 169 159.5 L 170 160.5 L 171 163.5 Q 170.1 165.5 168 165 L 167 168.5 L 165.5 170 Q 163.5 170.5 163 169.5 L 167 165.5 Q 166.7 163.7 168 163.5 L 168 155.5 L 169.5 154 Z "/>
  <path fill="rgb(255,255,0)" d="M 113 162 L 116.5 162 L 120.5 166 L 122.5 166 Q 123.3 167.5 125 167 L 125 169 L 123.5 169 L 122.5 170 L 119.5 170 L 118.5 171 L 115.5 172 L 115 171.5 L 116.5 170 L 118.5 170 L 121 168.5 L 115.5 164 L 114 164 L 114 166.5 L 111.5 169 Q 109.3 168.3 110 170.5 Q 109.5 171.5 109 170.5 L 109 169.5 L 113 165.5 L 113 162 Z "/>
  <path fill="rgb(255,255,0)" d="M 151.5 169 Q 153.5 168.5 154 169.5 Q 153.5 170.5 151.5 170 Q 150.5 169.5 151.5 169 Z "/>
  <path fill="rgb(255,255,0)" d="M 108.5 172 Q 108.8 173.3 110.5 173 Q 110.7 171.7 112.5 172 Q 113.5 172.5 112.5 173 Q 110.3 172.8 110 174.5 L 110 178.5 L 110 179 L 108 179 L 108 182.5 Q 107.5 183.5 107 182.5 L 107 175.5 L 108 174.5 Q 107.5 172.5 108.5 172 Z "/>
  <path fill="rgb(255,255,0)" d="M 112.5 178 L 115 180.5 L 114.5 181 L 112 178.5 L 112.5 178 Z "/>
  <path fill="rgb(255,255,0)" d="M 113.5 182 L 114 182.5 L 111.5 185 L 111 184.5 L 113.5 182 Z "/>
  <path fill="rgb(255,255,0)" d="M 107.5 185 Q 108.5 185.5 107.5 186 Q 106.5 185.5 107.5 185 Z "/>
  <path fill="rgb(255,255,0)" d="M 109 186 L 111 186 L 111 191.5 L 108.5 194 L 107.5 193 L 106 193 L 106 189 Q 108.1 189.5 109 187.5 L 109 186 Z "/>
</svg>
