<svg xmlns="http://www.w3.org/2000/svg" width="768" height="768" viewBox="0 0 768 768" fill="none">
  <path fill="#cb2026" d="M 323 214 L 325 214 L 325 215.5 L 326 216.5 L 327 219.5 L 329 221.5 L 330 224.5 L 332 226.5 L 334 231.5 L 336 233.5 L 338 238.5 L 340 240.5 L 341 243.5 L 343 245.5 L 345 250.5 L 347 252.5 L 349 257.5 L 351 259.5 L 353 264.5 L 355 266.5 L 356 269.5 L 358 271.5 L 358 272.5 L 359 273.5 L 360 276.5 L 362 278.5 L 364 283.5 L 366 285.5 L 367 288.5 L 369 290.5 L 369 291.5 L 370 292.5 L 371 295.5 L 373 297.5 L 375 302.5 L 377 304.5 L 378 307.5 L 380 309.5 L 382 314.5 L 384 316.5 L 384 317.5 L 385 318.5 L 386 321.5 L 388 323.5 L 390 328.5 L 392 330.5 L 391 331.5 L 390 334.5 L 388 336.5 L 386 341.5 L 384 343.5 L 383 346.5 L 381 348.5 L 379 353.5 L 377 355.5 L 375 360.5 L 373 362.5 L 371 367.5 L 369 369.5 L 367 374.5 L 365 376.5 L 364 379.5 L 362 381.5 L 360 386.5 L 358 388.5 L 356 393.5 L 354 395.5 L 352 400.5 L 350 402.5 L 348 407.5 L 346 409.5 L 344 414.5 L 342 416.5 L 341 419.5 L 339 421.5 L 336.5 427 L 335 425.5 L 334 422.5 L 332 420.5 L 332 419.5 L 331 418.5 L 330 415.5 L 328 413.5 L 327 410.5 L 325 408.5 L 323 403.5 L 321 401.5 L 319 396.5 L 317 394.5 L 315 389.5 L 313 387.5 L 313 386.5 L 312 385.5 L 311 382.5 L 309 380.5 L 307 375.5 L 305 373.5 L 304 370.5 L 302 368.5 L 300 363.5 L 298 361.5 L 296 356.5 L 294 354.5 L 294 353.5 L 293 352.5 L 292 349.5 L 290 347.5 L 288 342.5 L 286 340.5 L 285 337.5 L 283 335.5 L 281 330.5 L 279 328.5 L 279 327.5 L 278 326.5 L 277 323.5 L 275 321.5 L 273 316.5 L 271 314.5 L 271 313.5 L 269 310.5 L 269 308.5 L 270 307.5 L 272 302.5 L 274 300.5 L 276 295.5 L 278 293.5 L 280 288.5 L 282 286.5 L 283 283.5 L 285 281.5 L 287 276.5 L 289 274.5 L 291 269.5 L 293 267.5 L 295 262.5 L 297 260.5 L 298 257.5 L 300 255.5 L 302 250.5 L 304 248.5 L 306 243.5 L 308 241.5 L 310 236.5 L 312 234.5 L 313 231.5 L 315 229.5 L 315 228.5 L 316 227.5 L 317 224.5 L 319 222.5 L 321 217.5 L 323 215.5 L 323 214 Z "/>
  <path fill="#cb2026" d="M 221.5 266 L 223 267.5 L 224 270.5 L 226 272.5 L 228 277.5 L 230 279.5 L 232 284.5 L 234 286.5 L 236 291.5 L 238 293.5 L 239 296.5 L 241 298.5 L 243 303.5 L 245 305.5 L 247 310.5 L 249 312.5 L 249 313.5 L 250 314.5 L 251 317.5 L 253 319.5 L 255 324.5 L 257 326.5 L 258 329.5 L 260 331.5 L 262 336.5 L 264 338.5 L 266 343.5 L 268 345.5 L 270 350.5 L 272 352.5 L 272 353.5 L 273 354.5 L 274 357.5 L 276 359.5 L 278 364.5 L 280 366.5 L 281 369.5 L 283 371.5 L 285 376.5 L 287 378.5 L 289 383.5 L 291 385.5 L 291 386.5 L 292 387.5 L 293 390.5 L 295 392.5 L 297 397.5 L 299 399.5 L 300 402.5 L 302 404.5 L 304 409.5 L 306 411.5 L 308 416.5 L 310 418.5 L 312 423.5 L 314 425.5 L 314 426.5 L 315 427.5 L 316 430.5 L 318 432.5 L 320 437.5 L 322 439.5 L 323 442.5 L 325 444.5 L 325 447.5 L 323 449.5 L 322 452.5 L 320 454.5 L 318 459.5 L 316 461.5 L 314 466.5 L 312 468.5 L 310 473.5 L 308 475.5 L 308 476.5 L 307 477.5 L 306 480.5 L 304 482.5 L 302 487.5 L 300 489.5 L 299 492.5 L 297 494.5 L 295 499.5 L 293 501.5 L 291 506.5 L 289 508.5 L 287 513.5 L 285 515.5 L 284 519 L 283.5 519 L 76.5 519 L 76 518.5 L 77 517.5 L 78 514.5 L 80 512.5 L 82 507.5 L 84 505.5 L 86 500.5 L 88 498.5 L 90 493.5 L 92 491.5 L 94 486.5 L 96 484.5 L 97 481.5 L 99 479.5 L 101 474.5 L 103 472.5 L 105 467.5 L 107 465.5 L 109 460.5 L 111 458.5 L 112 455.5 L 114 453.5 L 116 448.5 L 118 446.5 L 118 445.5 L 119 444.5 L 120 441.5 L 122 439.5 L 124 434.5 L 126 432.5 L 127 429.5 L 129 427.5 L 131 422.5 L 133 420.5 L 135 415.5 L 137 413.5 L 137 412.5 L 138 411.5 L 139 408.5 L 141 406.5 L 143 401.5 L 145 399.5 L 146 396.5 L 148 394.5 L 150 389.5 L 152 387.5 L 152 386.5 L 153 385.5 L 154 382.5 L 156 380.5 L 158 375.5 L 160 373.5 L 161 370.5 L 163 368.5 L 165 363.5 L 167 361.5 L 167 360.5 L 168 359.5 L 169 356.5 L 171 354.5 L 173 349.5 L 175 347.5 L 176 344.5 L 178 342.5 L 180 337.5 L 182 335.5 L 182 334.5 L 183 333.5 L 184 330.5 L 186 328.5 L 188 323.5 L 190 321.5 L 191 318.5 L 193 316.5 L 195 311.5 L 197 309.5 L 199 304.5 L 201 302.5 L 203 297.5 L 205 295.5 L 207 290.5 L 209 288.5 L 210 285.5 L 212 283.5 L 214 278.5 L 216 276.5 L 218 271.5 L 220 269.5 L 221.5 266 Z "/>
  <path fill="#cb2026" d="M 547.5 266 L 551 270.5 L 551 271.5 L 552 272.5 L 553 275.5 L 555 277.5 L 557 282.5 L 559 284.5 L 560 287.5 L 562 289.5 L 562 290.5 L 563 291.5 L 564 294.5 L 566 296.5 L 568 301.5 L 570 303.5 L 571 306.5 L 573 308.5 L 573 309.5 L 574 310.5 L 575 313.5 L 577 315.5 L 579 320.5 L 581 322.5 L 582 325.5 L 584 327.5 L 586 332.5 L 588 334.5 L 588 335.5 L 589 336.5 L 590 339.5 L 592 341.5 L 594 346.5 L 596 348.5 L 597 351.5 L 599 353.5 L 599 354.5 L 600 355.5 L 601 358.5 L 603 360.5 L 605 365.5 L 607 367.5 L 608 370.5 L 610 372.5 L 610 373.5 L 611 374.5 L 612 377.5 L 614 379.5 L 616 384.5 L 618 386.5 L 619 389.5 L 621 391.5 L 623 396.5 L 625 398.5 L 625 399.5 L 626 400.5 L 627 403.5 L 629 405.5 L 631 410.5 L 633 412.5 L 634 415.5 L 636 417.5 L 636 418.5 L 637 419.5 L 638 422.5 L 640 424.5 L 642 429.5 L 644 431.5 L 645 434.5 L 647 436.5 L 647 437.5 L 648 438.5 L 649 441.5 L 651 443.5 L 653 448.5 L 655 450.5 L 656 453.5 L 658 455.5 L 660 460.5 L 662 462.5 L 664 467.5 L 666 469.5 L 668 474.5 L 670 476.5 L 671 479.5 L 673 481.5 L 675 486.5 L 677 488.5 L 679 493.5 L 681 495.5 L 682 498.5 L 684 500.5 L 686 505.5 L 688 507.5 L 690 512.5 L 692 514.5 L 692 515.5 L 694 518.5 L 693.5 519 L 576.5 519 L 576 519 L 576 517.5 L 575 516.5 L 574 513.5 L 572 511.5 L 572 510.5 L 571 509.5 L 570 506.5 L 568 504.5 L 566 499.5 L 564 497.5 L 563 494.5 L 561 492.5 L 559 487.5 L 557 485.5 L 555 480.5 L 553 478.5 L 551 473.5 L 549 471.5 L 549 470.5 L 548 469.5 L 547 466.5 L 545 464.5 L 543 459.5 L 541 457.5 L 540 454.5 L 538 452.5 L 536 447.5 L 534 445.5 L 532 440.5 L 530 438.5 L 530 437.5 L 529 436.5 L 528 433.5 L 526 431.5 L 524 426.5 L 522 424.5 L 521 421.5 L 519 419.5 L 517 414.5 L 515 412.5 L 513 407.5 L 511 405.5 L 509 400.5 L 507 398.5 L 507 397.5 L 506 396.5 L 505 393.5 L 503 391.5 L 501 386.5 L 499 384.5 L 499 383.5 L 496 379.5 L 494 374.5 L 492 372.5 L 492 371.5 L 490 368.5 L 490 365.5 L 493 361.5 L 493 360.5 L 494 359.5 L 495 356.5 L 497 354.5 L 498 351.5 L 500 349.5 L 502 344.5 L 504 342.5 L 506 337.5 L 508 335.5 L 510 330.5 L 512 328.5 L 513 325.5 L 515 323.5 L 517 318.5 L 519 316.5 L 521 311.5 L 523 309.5 L 525 304.5 L 527 302.5 L 528 299.5 L 530 297.5 L 532 292.5 L 534 290.5 L 536 285.5 L 538 283.5 L 540 278.5 L 542 276.5 L 544 271.5 L 546 269.5 L 547.5 266 Z "/>
  <path fill="#cb2026" d="M 429.5 303 Q 431.8 302.8 432 304.5 L 432 305.5 L 435 309.5 L 437 314.5 L 439 316.5 L 441 321.5 L 443 323.5 L 445 328.5 L 447 330.5 L 449 335.5 L 451 337.5 L 451 338.5 L 454 342.5 L 456 347.5 L 458 349.5 L 460 354.5 L 462 356.5 L 464 361.5 L 466 363.5 L 468 368.5 L 470 370.5 L 472 375.5 L 474 377.5 L 475 380.5 L 477 382.5 L 479 387.5 L 481 389.5 L 483 394.5 L 485 396.5 L 485 397.5 L 486 398.5 L 487 401.5 L 489 403.5 L 491 408.5 L 493 410.5 L 493 411.5 L 496 415.5 L 498 420.5 L 500 422.5 L 502 427.5 L 504 429.5 L 506 434.5 L 508 436.5 L 510 441.5 L 512 443.5 L 514 448.5 L 516 450.5 L 516 451.5 L 519 455.5 L 521 460.5 L 523 462.5 L 525 467.5 L 527 469.5 L 529 474.5 L 531 476.5 L 533 481.5 L 535 483.5 L 536 486.5 L 538 488.5 L 540 493.5 L 542 495.5 L 544 500.5 L 546 502.5 L 548 507.5 L 550 509.5 L 552 514.5 L 554 516.5 L 556 521.5 L 558 523.5 L 558 524.5 L 561 528.5 L 563 533.5 L 565 535.5 L 567 540.5 L 569 542.5 L 571 547.5 L 573 549.5 L 573 550.5 L 575 553.5 L 575 555 L 574.5 555 L 285.5 555 Q 284.5 555.4 285 553.5 L 288 549.5 L 290 544.5 L 292 542.5 L 294 537.5 L 296 535.5 L 296 534.5 L 297 533.5 L 298 530.5 L 300 528.5 L 302 523.5 L 304 521.5 L 305 518.5 L 307 516.5 L 309 511.5 L 311 509.5 L 313 504.5 L 315 502.5 L 315 501.5 L 316 500.5 L 317 497.5 L 319 495.5 L 321 490.5 L 323 488.5 L 324 485.5 L 326 483.5 L 328 478.5 L 330 476.5 L 332 471.5 L 334 469.5 L 336 464.5 L 338 462.5 L 338 461.5 L 339 460.5 L 340 457.5 L 342 455.5 L 344 450.5 L 346 448.5 L 347 445.5 L 349 443.5 L 351 438.5 L 353 436.5 L 355 431.5 L 357 429.5 L 357 428.5 L 358 427.5 L 359 424.5 L 361 422.5 L 363 417.5 L 365 415.5 L 366 412.5 L 368 410.5 L 370 405.5 L 372 403.5 L 374 398.5 L 376 396.5 L 378 391.5 L 380 389.5 L 380 388.5 L 381 387.5 L 382 384.5 L 384 382.5 L 386 377.5 L 388 375.5 L 389 372.5 L 391 370.5 L 393 365.5 L 395 363.5 L 397 358.5 L 399 356.5 L 401 351.5 L 403 349.5 L 405 344.5 L 407 342.5 L 408 339.5 L 410 337.5 L 412 332.5 L 414 330.5 L 416 325.5 L 418 323.5 L 420 318.5 L 422 316.5 L 424 311.5 L 426 309.5 L 428 304.5 L 429.5 303 Z "/>
</svg>
