<svg xmlns="http://www.w3.org/2000/svg" width="792" height="270" viewBox="0 0 792 270" fill="none">
  <path fill="currentColor" d="M 96.5 11 L 114.5 11 L 115.5 12 L 124.5 12 L 125.5 13 L 130.5 13 L 131.5 14 L 135.5 14 L 136.5 15 L 139.5 15 Q 140.25 16.75 143.5 16 L 144.5 17 L 146.5 17 L 147.5 18 L 149.5 18 Q 150 19.5 152.5 19 L 153.5 20 L 154.5 20 L 157.5 22 L 159.5 22 L 160.5 23 L 161.5 23 L 162.5 24 L 163.5 24 L 164.5 25 L 165.5 25 Q 165.75 26.25 167.5 26 L 169.5 28 L 170.5 28 Q 170.75 29.25 172.5 29 L 174.5 31 L 175.5 31 Q 175.75 32.25 177.5 32 L 180.5 35 L 181.5 35 L 183.5 37 L 184.5 37 L 188.5 41 L 190 41 L 190 42.5 L 188 44.5 L 188 45.5 L 186 47.5 L 186 48.5 L 184 50.5 L 184 51.5 L 180 56.5 L 180 57.5 Q 178.75 57.75 179 59.5 L 175 64.5 L 175 65.5 L 173 67.5 L 173 68.5 L 171 70.5 L 171 71.5 L 169 73.5 L 169 74.5 L 167 76.5 L 167 77.5 Q 165.75 77.75 166 79.5 L 163.5 82 L 161.5 80 L 160.5 80 L 155.5 76 L 154.5 76 Q 154.25 74.75 152.5 75 L 150.5 73 L 149.5 73 Q 149.25 71.75 147.5 72 L 145.5 70 L 144.5 70 L 143.5 69 L 142.5 69 L 141.5 68 L 140.5 68 L 139.5 67 L 138.5 67 L 135.5 65 L 133.5 65 L 130.5 63 L 128.5 63 L 127.5 62 L 125.5 62 L 124.5 61 Q 122 61.5 121.5 60 L 118.5 60 L 117.5 59 L 111.5 59 L 110.5 58 L 98.5 58 L 97.5 59 L 93.5 59 Q 92.75 60.75 89.5 60 L 88.5 61 L 87.5 61 L 86.5 62 L 85.5 62 Q 85.25 63.25 83.5 63 L 79 67.5 L 79 68.5 L 77 70.5 Q 77.25 72.25 76 72.5 Q 76.75 75.75 75 76.5 L 75 83.5 L 76 84.5 L 76 87.5 L 77 88.5 L 77 89.5 Q 78.25 89.75 78 91.5 L 83.5 97 L 84.5 97 L 86.5 99 L 87.5 99 L 90.5 101 L 92.5 101 L 95.5 103 L 97.5 103 L 98.5 104 L 100.5 104 L 101.5 105 Q 104 104.5 104.5 106 L 107.5 106 L 108.5 107 L 110.5 107 L 111.5 108 Q 114 107.5 114.5 109 L 117.5 109 L 118.5 110 Q 121 109.5 121.5 111 L 124.5 111 L 125.5 112 Q 128 111.5 128.5 113 L 131.5 113 L 132.5 114 L 134.5 114 L 135.5 115 L 137.5 115 Q 138 116.5 140.5 116 L 143.5 118 L 145.5 118 Q 146 119.5 148.5 119 L 151.5 121 L 153.5 121 L 154.5 122 L 155.5 122 L 156.5 123 L 157.5 123 L 158.5 124 L 159.5 124 L 160.5 125 L 161.5 125 L 162.5 126 L 163.5 126 Q 163.75 127.25 165.5 127 L 167.5 129 L 168.5 129 L 170.5 131 L 171.5 131 L 174.5 134 L 175.5 134 L 185 143.5 L 185 144.5 L 188 147.5 L 188 148.5 L 189 149.5 L 189 150.5 L 190 151.5 L 190 152.5 L 191 153.5 L 191 154.5 L 193 157.5 L 193 159.5 L 194 160.5 Q 193.5 163 195 163.5 L 195 166.5 L 196 167.5 L 196 173.5 L 197 174.5 L 197 194.5 L 196 195.5 L 196 201.5 L 195 202.5 L 195 206.5 L 194 207.5 L 194 209.5 Q 192.5 210 193 212.5 L 191 215.5 L 191 217.5 L 190 218.5 L 190 219.5 L 189 220.5 L 189 221.5 Q 187.75 221.75 188 223.5 L 184 228.5 L 184 229.5 L 180 233.5 L 180 234.5 L 174.5 240 L 173.5 240 L 169.5 244 L 168.5 244 L 166.5 246 L 165.5 246 Q 165.25 247.25 163.5 247 L 161.5 249 L 160.5 249 L 159.5 250 L 158.5 250 L 155.5 252 L 153.5 252 L 150.5 254 L 148.5 254 Q 148 255.5 145.5 255 L 144.5 256 Q 141.25 255.25 140.5 257 L 136.5 257 L 135.5 258 L 130.5 258 L 129.5 259 L 117.5 259 L 116.5 260 L 110.5 260 L 109.5 259 L 96.5 259 L 95.5 258 L 89.5 258 L 88.5 257 L 84.5 257 L 83.5 256 L 79.5 256 L 78.5 255 Q 76 255.5 75.5 254 L 72.5 254 L 71.5 253 L 69.5 253 L 68.5 252 L 66.5 252 Q 66 250.5 63.5 251 L 60.5 249 L 58.5 249 L 57.5 248 L 56.5 248 L 53.5 246 L 51.5 246 Q 51.25 244.75 49.5 245 L 47.5 243 L 46.5 243 L 45.5 242 L 44.5 242 Q 44.25 240.75 42.5 241 L 40.5 239 L 39.5 239 Q 39.25 237.75 37.5 238 L 35.5 236 L 34.5 236 L 32.5 234 L 31.5 234 L 27.5 230 L 26.5 230 L 22.5 226 L 21.5 226 L 17 221.5 L 17 220.5 Q 18.25 220.25 18 218.5 L 22 214.5 L 22 213.5 L 26 209.5 L 26 208.5 L 29 205.5 L 29 204.5 L 33 200.5 L 33 199.5 L 37 195.5 L 37 194.5 L 41 190.5 L 41 189.5 L 44 186.5 L 44 185.5 L 46.5 183 L 50.5 187 L 51.5 187 L 54.5 190 L 55.5 190 L 58.5 193 L 59.5 193 L 64.5 197 L 65.5 197 L 67.5 199 L 68.5 199 L 69.5 200 L 70.5 200 Q 70.75 201.25 72.5 201 L 74.5 203 L 75.5 203 L 78.5 205 L 80.5 205 L 81.5 206 L 82.5 206 Q 82.75 207.25 84.5 207 L 85.5 208 Q 88 207.5 88.5 209 L 91.5 209 L 92.5 210 L 95.5 210 L 96.5 211 L 100.5 211 L 101.5 212 L 109.5 212 L 110.5 213 L 118.5 213 L 119.5 212 L 125.5 212 L 126.5 211 L 129.5 211 Q 130 209.5 132.5 210 L 133.5 209 L 134.5 209 L 135.5 208 L 136.5 208 Q 136.75 206.75 138.5 207 L 145 200.5 Q 144.75 198.75 146 198.5 L 146 196.5 L 147 195.5 L 147 183.5 L 146 182.5 L 146 180.5 Q 144.75 180.25 145 178.5 L 139.5 173 L 138.5 173 L 136.5 171 L 135.5 171 L 134.5 170 L 133.5 170 L 132.5 169 L 131.5 169 L 128.5 167 L 126.5 167 L 123.5 165 L 121.5 165 L 120.5 164 L 118.5 164 L 117.5 163 L 115.5 163 L 114.5 162 Q 112 162.5 111.5 161 L 108.5 161 L 107.5 160 Q 105 160.5 104.5 159 L 101.5 159 L 100.5 158 L 97.5 158 L 96.5 157 Q 94 157.5 93.5 156 L 90.5 156 L 89.5 155 L 87.5 155 L 86.5 154 L 84.5 154 L 83.5 153 L 81.5 153 L 80.5 152 L 78.5 152 L 77.5 151 L 75.5 151 Q 75 149.5 72.5 150 L 69.5 148 L 67.5 148 L 66.5 147 L 65.5 147 Q 65.25 145.75 63.5 146 L 62.5 145 L 61.5 145 L 60.5 144 L 59.5 144 L 58.5 143 L 57.5 143 Q 57.25 141.75 55.5 142 L 53.5 140 L 52.5 140 L 50.5 138 L 49.5 138 L 46.5 135 L 45.5 135 L 39 128.5 L 39 127.5 L 36 124.5 L 36 123.5 L 34 121.5 L 34 120.5 L 33 119.5 L 33 118.5 L 32 117.5 L 32 116.5 L 31 115.5 L 31 114.5 L 29 111.5 Q 29.5 109 28 108.5 L 28 105.5 L 27 104.5 L 27 99.5 L 26 98.5 L 26 70.5 L 27 69.5 L 27 65.5 Q 28.75 64.75 28 61.5 L 29 60.5 L 29 58.5 L 31 55.5 L 31 53.5 L 33 50.5 L 33 49.5 L 35 47.5 L 35 46.5 Q 36.25 46.25 36 44.5 L 38 42.5 L 38 41.5 L 41 38.5 L 41 37.5 L 49.5 29 L 50.5 29 L 53.5 26 L 54.5 26 L 59.5 22 L 60.5 22 L 61.5 21 L 62.5 21 L 63.5 20 L 64.5 20 L 65.5 19 L 66.5 19 L 69.5 17 L 71.5 17 L 72.5 16 L 74.5 16 Q 75 14.5 77.5 15 L 78.5 14 L 81.5 14 L 82.5 13 L 87.5 13 L 88.5 12 L 95.5 12 L 96.5 11 Z "/>
  <path fill="currentColor" d="M 327.5 11 L 347.5 11 L 348.5 12 L 357.5 12 L 358.5 13 L 363.5 13 L 364.5 14 L 368.5 14 Q 369.25 15.75 372.5 15 L 373.5 16 L 375.5 16 L 378.5 18 L 380.5 18 L 381.5 19 L 382.5 19 L 383.5 20 L 384.5 20 L 385.5 21 L 386.5 21 L 389.5 23 L 390.5 23 L 396 28.5 L 396 29.5 L 394 31.5 L 394 32.5 L 392 34.5 L 392 35.5 L 390 37.5 L 390 38.5 L 388 40.5 L 388 41.5 L 384 46.5 L 384 47.5 Q 382.75 47.75 383 49.5 L 381 51.5 L 381 52.5 L 379 54.5 L 379 55.5 L 377 57.5 L 377 58.5 L 375 60.5 L 375 61.5 L 373 63.5 L 373 64.5 L 371 66.5 L 371 68 Q 370.5 68 368.5 68 L 367.5 67 Q 365.75 67.25 365.5 66 L 363.5 66 L 360.5 64 Q 358 64.5 357.5 63 L 354.5 63 L 353.5 62 L 350.5 62 L 349.5 61 L 343.5 61 L 342.5 60 L 330.5 60 L 329.5 61 L 324.5 61 Q 323.75 62.75 320.5 62 L 319.5 63 L 317.5 63 L 316.5 64 L 314.5 64 L 313.5 65 L 311.5 65 L 310.5 66 L 309.5 66 Q 309.25 67.25 307.5 67 L 305.5 69 L 304.5 69 Q 304.25 70.25 302.5 70 L 299.5 73 L 298.5 73 L 287 84.5 L 287 85.5 L 284 88.5 L 284 89.5 L 282 91.5 L 282 92.5 L 281 93.5 L 281 94.5 L 280 95.5 L 280 96.5 L 279 97.5 L 279 98.5 L 278 99.5 L 278 100.5 L 276 103.5 L 276 105.5 L 275 106.5 L 275 108.5 L 274 109.5 Q 274.5 112 273 112.5 Q 273.75 115.75 272 116.5 L 272 120.5 L 271 121.5 L 271 129.5 L 270 130.5 L 270 140.5 L 271 141.5 L 271 149.5 L 272 150.5 L 272 154.5 L 273 155.5 L 273 158.5 Q 274.75 159.25 274 162.5 L 275 163.5 L 275 165.5 L 277 168.5 L 277 170.5 L 278 171.5 L 278 172.5 L 279 173.5 L 279 174.5 L 280 175.5 L 280 176.5 L 281 177.5 L 281 178.5 Q 282.25 178.75 282 180.5 L 284 182.5 L 284 183.5 L 287 186.5 L 287 187.5 L 299.5 200 L 300.5 200 L 305.5 204 L 306.5 204 L 307.5 205 L 308.5 205 L 311.5 207 L 313.5 207 L 316.5 209 L 318.5 209 L 319.5 210 Q 322.75 209.25 323.5 211 L 328.5 211 L 329.5 212 L 344.5 212 L 345.5 211 L 351.5 211 L 352.5 210 L 355.5 210 Q 356.25 208.25 359.5 209 L 360.5 208 L 362.5 208 L 363.5 207 L 364.5 207 L 365.5 206 L 366.5 206 L 369.5 204 L 371 205.5 L 371 206.5 Q 372.25 206.75 372 208.5 L 374 210.5 L 374 211.5 L 376 213.5 L 376 214.5 L 378 216.5 L 378 217.5 L 380 219.5 L 380 220.5 L 382 222.5 L 382 223.5 L 386 228.5 L 386 229.5 Q 387.25 229.75 387 231.5 L 389 233.5 L 389 234.5 L 391 236.5 L 391 237.5 L 393 239.5 L 393 240.5 L 395 242.5 Q 394.75 244.25 396 244.5 Q 395.75 245.25 394.5 245 L 392.5 247 L 391.5 247 Q 391.25 248.25 389.5 248 L 387.5 250 L 386.5 250 L 385.5 251 L 384.5 251 L 381.5 253 L 379.5 253 L 376.5 255 L 374.5 255 L 373.5 256 Q 371 255.5 370.5 257 L 367.5 257 Q 366.75 258.75 363.5 258 L 362.5 259 L 358.5 259 L 357.5 260 L 348.5 260 L 347.5 261 L 324.5 261 L 323.5 260 L 316.5 260 L 315.5 259 L 310.5 259 L 309.5 258 L 306.5 258 Q 305.75 256.25 302.5 257 L 301.5 256 L 299.5 256 L 298.5 255 L 296.5 255 Q 296 253.5 293.5 254 L 290.5 252 L 288.5 252 L 287.5 251 L 286.5 251 L 285.5 250 L 284.5 250 L 283.5 249 L 282.5 249 Q 282.25 247.75 280.5 248 L 278.5 246 L 277.5 246 L 276.5 245 L 275.5 245 Q 275.25 243.75 273.5 244 L 271.5 242 L 270.5 242 L 268.5 240 L 267.5 240 L 264.5 237 L 263.5 237 L 257.5 231 L 256.5 231 L 251 225.5 L 251 224.5 L 245 218.5 L 245 217.5 L 242 214.5 L 242 213.5 L 239 210.5 L 239 209.5 Q 237.75 209.25 238 207.5 L 236 205.5 L 236 204.5 Q 234.75 204.25 235 202.5 L 233 200.5 L 233 199.5 L 232 198.5 L 232 197.5 L 231 196.5 L 231 195.5 L 229 192.5 L 229 190.5 L 227 187.5 L 227 185.5 L 225 182.5 L 225 180.5 L 224 179.5 Q 224.5 177 223 176.5 L 223 173.5 L 222 172.5 L 222 169.5 L 221 168.5 Q 221.75 165.25 220 164.5 L 220 159.5 L 219 158.5 L 219 151.5 L 218 150.5 L 218 122.5 L 219 121.5 L 219 114.5 L 220 113.5 L 220 108.5 L 221 107.5 L 221 104.5 L 222 103.5 L 222 100.5 Q 223.75 99.75 223 96.5 L 224 95.5 L 224 93.5 Q 225.5 93 225 90.5 L 227 87.5 L 227 85.5 L 228 84.5 L 228 83.5 L 230 80.5 L 230 78.5 L 231 77.5 L 231 76.5 L 232 75.5 L 232 74.5 Q 233.25 74.25 233 72.5 L 235 70.5 L 235 69.5 Q 236.25 69.25 236 67.5 L 238 65.5 L 238 64.5 Q 239.25 64.25 239 62.5 L 242 59.5 L 242 58.5 L 245 55.5 L 245 54.5 L 249 50.5 L 249 49.5 L 259.5 39 L 260.5 39 L 264.5 35 L 265.5 35 L 268.5 32 L 269.5 32 L 274.5 28 L 275.5 28 Q 275.75 26.75 277.5 27 L 279.5 25 L 280.5 25 L 281.5 24 L 282.5 24 L 283.5 23 L 284.5 23 L 285.5 22 L 286.5 22 L 289.5 20 L 291.5 20 L 294.5 18 L 296.5 18 L 297.5 17 L 299.5 17 Q 300 15.5 302.5 16 L 303.5 15 L 306.5 15 L 307.5 14 L 311.5 14 L 312.5 13 L 317.5 13 L 318.5 12 L 326.5 12 L 327.5 11 Z "/>
  <path fill="currentColor" d="M 429 11 L 429.5 11 L 462.5 11 L 466 14.5 L 466 15.5 L 468 17.5 L 468 18.5 Q 469.25 18.75 469 20.5 L 471 22.5 L 471 23.5 L 473 26.5 L 473 28.5 L 475 31.5 Q 474.5 34 476 34.5 L 476 37.5 L 477 38.5 L 477 40.5 Q 478.5 41 478 43.5 L 480 46.5 L 480 48.5 L 481 49.5 L 481 51.5 L 482 52.5 L 482 54.5 L 483 55.5 Q 482.5 58 484 58.5 L 484 62.5 L 485 63.5 L 485 70.5 Q 483.25 71.25 484 74.5 L 483 75.5 L 483 76.5 Q 481.75 76.75 482 78.5 L 480 80.5 Q 480.25 82.25 479 82.5 Q 479.5 85 478 85.5 L 478 91.5 L 479 92.5 L 479 94.5 L 480 95.5 L 480 96.5 Q 481.25 96.75 481 98.5 L 483 100.5 L 483 101.5 L 485 103.5 L 485 104.5 L 488 107.5 L 488 108.5 L 491 111.5 L 491 112.5 L 493 114.5 L 493 115.5 L 496 118.5 L 496 119.5 L 499 122.5 L 499 123.5 L 502 126.5 L 502 127.5 L 505 130.5 L 505 131.5 Q 506.25 131.75 506 133.5 L 508 135.5 Q 507.75 137.25 509 137.5 L 509 144.5 L 508 145.5 L 508 146.5 L 507 147.5 L 507 148.5 Q 505.75 148.75 506 150.5 L 502.5 154 L 501.5 154 L 500.5 155 L 499.5 155 L 498.5 156 L 497.5 156 L 496.5 157 L 495.5 157 Q 495.25 158.25 493.5 158 L 488 163.5 Q 488.5 166 487 166.5 L 487 171.5 L 488 172.5 L 488 174.5 L 489 175.5 L 489 176.5 L 491 179.5 Q 490.5 182 492 182.5 L 492 186.5 Q 490.75 186.75 491 188.5 L 488.5 191 L 487.5 191 L 485.5 193 Q 483.75 192.75 483.5 194 L 482 194 L 482 196 L 483.5 196 L 486 198.5 Q 485.75 200.25 487 200.5 L 487 202.5 L 486 203.5 L 486 205.5 L 485 206.5 L 485 208 L 483.5 208 L 480 211.5 L 480 215.5 L 481 216.5 L 481 220.5 L 482 221.5 L 482 238.5 L 481 239.5 L 481 241.5 L 480 242.5 L 480 243.5 L 479 244.5 L 479 245.5 Q 477.75 245.75 478 247.5 L 476 249.5 L 476 250.5 L 470.5 256 L 469.5 256 L 467.5 258 L 465.5 258 L 464.5 259 Q 462 258.5 461.5 260 L 458.5 260 L 457.5 261 L 429.5 261 L 429 261 L 429 260.5 L 429 11.5 L 429 11 Z "/>
  <path fill="currentColor" d="M 538 11 L 538.5 11 L 592.5 11 Q 593.5 10.62 593 12.5 L 595 14.5 L 595 15.5 Q 596.25 15.75 596 17.5 L 598 19.5 L 598 20.5 Q 599.25 20.75 599 22.5 L 601 24.5 L 601 25.5 L 602 26.5 L 602 27.5 Q 603.25 27.75 603 29.5 L 605 31.5 L 605 32.5 Q 606.25 32.75 606 34.5 L 608 36.5 L 608 37.5 Q 609.25 37.75 609 39.5 L 611 41.5 L 611 42.5 L 612 43.5 L 612 44.5 Q 613.25 44.75 613 46.5 L 615 48.5 L 615 49.5 Q 616.25 49.75 616 51.5 L 618 53.5 L 618 54.5 Q 619.25 54.75 619 56.5 L 621 58.5 L 621 59.5 L 622 60.5 L 622 61.5 Q 623.25 61.75 623 63.5 L 625 65.5 L 625 66.5 Q 626.25 66.75 626 68.5 L 628 70.5 L 628 71.5 Q 629.25 71.75 629 73.5 L 631 75.5 L 631 76.5 L 632 77.5 L 632 78.5 Q 633.25 78.75 633 80.5 L 635 82.5 L 635 83.5 Q 636.25 83.75 636 85.5 L 638 87.5 L 638 88.5 Q 639.25 88.75 639 90.5 L 641 92.5 L 641 93.5 L 642 94.5 L 642 95.5 Q 643.25 95.75 643 97.5 L 645 99.5 L 645 100.5 Q 646.25 100.75 646 102.5 L 648 104.5 L 648 105.5 L 649 106.5 L 649 107.5 Q 650.25 107.75 650 109.5 L 652 111.5 Q 651.75 112.75 652.5 113 Q 653.25 112.75 653 111.5 L 655 109.5 L 655 108.5 Q 656.25 108.25 656 106.5 L 658 104.5 L 658 103.5 Q 659.25 103.25 659 101.5 L 661 99.5 L 661 98.5 L 662 97.5 L 662 96.5 Q 663.25 96.25 663 94.5 L 665 92.5 L 665 91.5 Q 666.25 91.25 666 89.5 L 668 87.5 L 668 86.5 Q 669.25 86.25 669 84.5 L 671 82.5 L 671 81.5 L 672 80.5 L 672 79.5 Q 673.25 79.25 673 77.5 L 675 75.5 L 675 74.5 Q 676.25 74.25 676 72.5 L 678 70.5 L 678 69.5 Q 679.25 69.25 679 67.5 L 681 65.5 L 681 64.5 L 682 63.5 L 682 62.5 Q 683.25 62.25 683 60.5 L 685 58.5 L 685 57.5 Q 686.25 57.25 686 55.5 L 688 53.5 L 688 52.5 Q 689.25 52.25 689 50.5 L 691 48.5 L 691 47.5 L 692 46.5 L 692 45.5 Q 693.25 45.25 693 43.5 L 695 41.5 L 695 40.5 Q 696.25 40.25 696 38.5 L 698 36.5 L 698 35.5 L 699 34.5 L 699 33.5 Q 700.25 33.25 700 31.5 L 702 29.5 L 702 28.5 Q 703.25 28.25 703 26.5 L 705 24.5 L 705 23.5 Q 706.25 23.25 706 21.5 L 708 19.5 L 708 18.5 L 709 17.5 L 709 16.5 Q 710.25 16.25 710 14.5 L 712 12.5 L 712 11 L 712.5 11 L 766.5 11 Q 767.25 10.75 767 11.5 L 767 260.5 L 767 261 L 766.5 261 L 717.5 261 Q 716.75 261.25 717 260.5 L 717 96.5 Q 716.5 95.5 716 96.5 L 716 97.5 L 714 99.5 L 714 100.5 Q 712.75 100.75 713 102.5 L 711 104.5 L 711 105.5 Q 709.75 105.75 710 107.5 L 708 109.5 L 708 110.5 L 706 112.5 L 706 113.5 Q 704.75 113.75 705 115.5 L 701 120.5 L 701 121.5 Q 699.75 121.75 700 123.5 L 696 128.5 L 696 129.5 Q 694.75 129.75 695 131.5 L 693 133.5 L 693 134.5 L 691 136.5 L 691 137.5 Q 689.75 137.75 690 139.5 L 686 144.5 L 686 145.5 Q 684.75 145.75 685 147.5 L 681 152.5 L 681 153.5 Q 679.75 153.75 680 155.5 L 678 157.5 L 678 158.5 Q 676.75 158.75 677 160.5 L 673 165.5 L 673 166.5 Q 671.75 166.75 672 168.5 L 670 170.5 L 670 171.5 L 668 173.5 L 668 174.5 Q 666.75 174.75 667 176.5 L 663 181.5 L 663 182.5 Q 661.75 182.75 662 184.5 L 658 189.5 L 658 190.5 Q 656.75 190.75 657 192.5 L 655 194.5 L 655 195.5 L 652.5 198 L 651.5 198 L 650 196.5 L 650 195.5 Q 648.75 195.25 649 193.5 L 645 188.5 L 645 187.5 Q 643.75 187.25 644 185.5 L 640 180.5 L 640 179.5 Q 638.75 179.25 639 177.5 L 635 172.5 L 635 171.5 Q 633.75 171.25 634 169.5 L 630 164.5 L 630 163.5 Q 628.75 163.25 629 161.5 L 627 159.5 L 627 158.5 Q 625.75 158.25 626 156.5 L 622 151.5 L 622 150.5 Q 620.75 150.25 621 148.5 L 617 143.5 L 617 142.5 Q 615.75 142.25 616 140.5 L 612 135.5 L 612 134.5 Q 610.75 134.25 611 132.5 L 607 127.5 L 607 126.5 Q 605.75 126.25 606 124.5 L 602 119.5 L 602 118.5 Q 600.75 118.25 601 116.5 L 597 111.5 L 597 110.5 Q 595.75 110.25 596 108.5 L 592 103.5 L 592 102.5 Q 590.75 102.25 591 100.5 L 589 98.5 Q 589.25 97.25 588.5 97 L 588 97.5 L 588 260.5 L 588 261 L 587.5 261 L 538.5 261 Q 537.75 261.25 538 260.5 L 538 11.5 L 538 11 Z "/>
</svg>
